<?xml version="1.0" encoding="UTF-8" standalone="no"?>
<!DOCTYPE svg PUBLIC "-//W3C//DTD SVG 1.1//EN" "http://www.w3.org/Graphics/SVG/1.1/DTD/svg11.dtd">
<!-- Created with Vectornator (http://vectornator.io/) -->
<svg height="100%" stroke-miterlimit="10" style="fill-rule:nonzero;clip-rule:evenodd;stroke-linecap:round;stroke-linejoin:round;" version="1.1" viewBox="0 0 123.327 136.684" width="100%" xml:space="preserve" xmlns="http://www.w3.org/2000/svg" xmlns:vectornator="http://vectornator.io" xmlns:xlink="http://www.w3.org/1999/xlink">
<defs/>
<clipPath id="ArtboardFrame">
<rect height="136.684" width="123.327" x="0" y="0"/>
</clipPath>
<g clip-path="url(#ArtboardFrame)" id="Ebene-1" vectornator:layerName="Ebene 1" visibility="hidden">
<g opacity="1">
<g opacity="1">
<path d="M79.7363 20.4657C79.7363 16.4498 82.9931 13.1942 87.0105 13.1942C91.028 13.1942 94.2847 16.4498 94.2847 20.4657C94.2847 24.4817 91.028 27.7372 87.0105 27.7372C82.9931 27.7372 79.7363 24.4817 79.7363 20.4657Z" fill="#b2b2b2" fill-rule="nonzero" opacity="1" stroke="#000000" stroke-linecap="butt" stroke-linejoin="round" stroke-width="1.5"/>
<path d="M81.6643 41.0829C55.4363 41.0829 17.0361 66.0804 17.0361 91.7888C17.0361 109.035 26.7832 117.337 36.395 120.981C36.4334 120.996 36.4738 120.996 36.5122 121.01C58.1723 121.01 77.0851 101.121 80.2272 97.6653C72.3307 105.679 61.6961 110.414 50.3756 110.356C37.0696 110.289 28.8434 97.5983 28.9357 86.0881C29.1267 62.2978 63.2353 42.372 81.6643 41.0829Z" fill="#97003c" fill-rule="nonzero" opacity="1" stroke="#000000" stroke-linecap="butt" stroke-linejoin="round" stroke-width="1.5"/>
<path d="M78.2157 117.79C78.2157 117.79 81.5196 115.909 84.0954 113.754C86.6711 111.599 88.7652 109.41 88.7652 109.41C88.7652 109.41 91.4253 112.035 94.5426 114.635C97.66 117.234 101.235 119.808 101.235 119.808C101.235 119.808 94.7184 119.685 89.0253 119.241C83.3322 118.796 78.2157 117.79 78.2157 117.79Z" fill="#97003c" fill-rule="nonzero" opacity="1" stroke="#000000" stroke-linecap="butt" stroke-linejoin="round" stroke-width="1.5"/>
<path d="M91.8485 41.176C91.8485 41.176 95.9037 41.5179 100.096 40.8779C104.288 40.2379 108.617 38.6161 108.617 38.6161C108.617 38.6161 107.228 41.4883 104.388 43.7114C101.548 45.9345 97.2572 47.5085 97.2572 47.5085C97.2572 47.5085 96.0656 45.6824 94.7135 44.0993C93.3613 42.5162 91.8485 41.176 91.8485 41.176Z" fill="#97003c" fill-rule="nonzero" opacity="1" stroke="#000000" stroke-linecap="butt" stroke-linejoin="round" stroke-width="1.5"/>
<path d="M83.8323 38.8853C84.6084 39.9344 93.1688 48.6202 93.5777 64.0767C93.5777 76.9793 88.8616 88.1671 81.4436 96.3317L81.4582 96.3757C81.4582 96.3757 81.0071 96.8352 80.96 96.8886C80.8325 97.0244 80.7226 97.1796 80.5936 97.3136C80.4754 97.4363 80.3467 97.5441 80.2272 97.6653C77.0851 101.121 58.1723 121.01 36.5122 121.01C36.5137 121.011 36.5108 121.024 36.5122 121.025C41.1877 122.779 45.8275 123.435 49.2765 123.487C65.0232 123.724 100.828 111.361 101.696 69.3378C101.645 48.7214 86.0517 40.2159 84.0228 38.8999C83.7692 38.7354 83.7214 38.7354 83.8323 38.8853Z" fill="#b2b2b2" fill-rule="nonzero" opacity="1" stroke="#000000" stroke-linecap="butt" stroke-linejoin="round" stroke-width="1.5"/>
</g>
<path d="M120.081 81.7277C120.081 82.3529 120.194 82.9344 120.419 83.4722C120.644 84.0099 120.95 84.4788 121.338 84.879C121.726 85.2792 122.189 85.5918 122.726 85.8169C123.264 86.042 123.845 86.1546 124.471 86.1546C125.071 86.1546 125.64 86.042 126.178 85.8169C126.715 85.5918 127.178 85.2792 127.566 84.879C127.953 84.4788 128.266 84.0161 128.504 83.4909C128.741 82.9657 128.86 82.403 128.86 81.8027C128.86 81.2024 128.741 80.6335 128.504 80.0957C128.266 79.558 127.953 79.089 127.566 78.6889C127.178 78.2887 126.715 77.9761 126.178 77.751C125.64 77.5259 125.071 77.4133 124.471 77.4133C123.845 77.4133 123.264 77.5259 122.726 77.751C122.189 77.9761 121.726 78.2887 121.338 78.6889C120.95 79.089 120.644 79.5455 120.419 80.0582C120.194 80.5709 120.081 81.1274 120.081 81.7277ZM128.635 72.1611L135.463 72.1611L135.463 91.4068L128.635 91.4068L128.635 89.2684C127.184 91.0942 125.221 92.0071 122.745 92.0071C121.344 92.0071 120.056 91.7507 118.881 91.238C117.705 90.7253 116.68 90.0062 115.805 89.0808C114.929 88.1554 114.248 87.0675 113.76 85.8169C113.272 84.5664 113.028 83.2033 113.028 81.7277C113.028 80.3521 113.266 79.0453 113.741 77.8072C114.216 76.5692 114.879 75.4875 115.73 74.5621C116.58 73.6367 117.593 72.9051 118.768 72.3674C119.944 71.8297 121.244 71.5608 122.67 71.5608C125.071 71.5608 127.059 72.3987 128.635 74.0744L128.635 72.1611Z" fill="#97003c" fill-rule="nonzero" opacity="1" stroke="#000000" stroke-linecap="butt" stroke-linejoin="round" stroke-width="1.5"/>
<path d="M141.197 78.6792L141.197 89.6015L144.94 89.6015L144.94 91.4068L139.276 91.4068L139.276 78.6792L141.197 78.6792Z" fill="#000000" fill-rule="nonzero" opacity="1" stroke="none"/>
<path d="M148.682 78.6792L148.682 89.6015L152.424 89.6015L152.424 91.4068L146.761 91.4068L146.761 78.6792L148.682 78.6792Z" fill="#000000" fill-rule="nonzero" opacity="1" stroke="none"/>
<path d="M174.159 72.1611L174.159 91.4068L167.369 91.4068L167.369 72.1611L174.159 72.1611ZM166.919 64.7704C166.919 64.2452 167.019 63.7512 167.219 63.2885C167.419 62.8258 167.694 62.4194 168.044 62.0693C168.394 61.7191 168.801 61.444 169.263 61.2439C169.726 61.0438 170.22 60.9438 170.745 60.9438C171.27 60.9438 171.764 61.0438 172.227 61.2439C172.69 61.444 173.096 61.7191 173.446 62.0693C173.796 62.4194 174.072 62.8258 174.272 63.2885C174.472 63.7512 174.572 64.2452 174.572 64.7704C174.572 65.2956 174.472 65.7896 174.272 66.2523C174.072 66.715 173.796 67.1214 173.446 67.4716C173.096 67.8217 172.69 68.0968 172.227 68.2969C171.764 68.497 171.27 68.5971 170.745 68.5971C170.22 68.5971 169.726 68.497 169.263 68.2969C168.801 68.0968 168.394 67.8217 168.044 67.4716C167.694 67.1214 167.419 66.715 167.219 66.2523C167.019 65.7896 166.919 65.2956 166.919 64.7704Z" fill="#b2b2b2" fill-rule="nonzero" opacity="1" stroke="#000000" stroke-linecap="butt" stroke-linejoin="round" stroke-width="1.5"/>
<path d="M178.01 91.4068L178.01 77.8137L187.292 87.5242L187.292 78.6792L189.213 78.6792L189.213 92.1817L179.931 82.4958L179.931 91.4068L178.01 91.4068Z" fill="#000000" fill-rule="nonzero" opacity="1" stroke="none"/>
<path d="M207.405 81.6902C207.405 82.3404 207.524 82.9344 207.761 83.4722C207.999 84.0099 208.312 84.4788 208.699 84.879C209.087 85.2792 209.55 85.5918 210.087 85.8169C210.625 86.042 211.194 86.1546 211.794 86.1546C212.395 86.1546 212.964 86.042 213.501 85.8169C214.039 85.5918 214.502 85.2792 214.889 84.879C215.277 84.4788 215.59 84.0099 215.827 83.4722C216.065 82.9344 216.184 82.3529 216.184 81.7277C216.184 81.1274 216.065 80.5584 215.827 80.0207C215.59 79.483 215.277 79.014 214.889 78.6138C214.502 78.2137 214.039 77.901 213.501 77.6759C212.964 77.4508 212.395 77.3383 211.794 77.3383C211.194 77.3383 210.625 77.4508 210.087 77.6759C209.55 77.901 209.087 78.2137 208.699 78.6138C208.312 79.014 207.999 79.4767 207.761 80.0019C207.524 80.5272 207.405 81.0899 207.405 81.6902ZM200.239 81.6151C200.239 80.1895 200.527 78.8577 201.102 77.6197C201.677 76.3816 202.478 75.3062 203.503 74.3933C204.529 73.4804 205.748 72.7613 207.161 72.2361C208.574 71.7109 210.119 71.4483 211.794 71.4483C213.445 71.4483 214.977 71.7046 216.39 72.2174C217.803 72.7301 219.029 73.4429 220.067 74.3558C221.105 75.2687 221.911 76.3566 222.486 77.6197C223.062 78.8827 223.349 80.277 223.349 81.8027C223.349 83.3284 223.055 84.7227 222.468 85.9857C221.88 87.2488 221.073 88.3367 220.048 89.2496C219.022 90.1625 217.791 90.8691 216.353 91.3693C214.914 91.8695 213.357 92.1196 211.682 92.1196C210.031 92.1196 208.505 91.8695 207.105 91.3693C205.704 90.8691 204.497 90.1563 203.485 89.2309C202.472 88.3055 201.677 87.1988 201.102 85.9107C200.527 84.6227 200.239 83.1908 200.239 81.6151Z" fill="#97003c" fill-rule="nonzero" opacity="1" stroke="#000000" stroke-linecap="butt" stroke-linejoin="round" stroke-width="1.5"/>
<path d="M226.45 91.4068L226.45 77.8137L235.732 87.5242L235.732 78.6792L237.653 78.6792L237.653 92.1817L228.371 82.4958L228.371 91.4068L226.45 91.4068Z" fill="#000000" fill-rule="nonzero" opacity="1" stroke="none"/>
<path d="M247.726 80.4845L242.623 80.4845L242.623 83.5427L247.577 83.5427L247.577 85.348L242.623 85.348L242.623 89.6015L247.726 89.6015L247.726 91.4068L240.703 91.4068L240.703 78.6792L247.726 78.6792L247.726 80.4845Z" fill="#000000" fill-rule="nonzero" opacity="1" stroke="none"/>
<path d="M145.734 101.96L146.516 101.96C146.486 101.102 146.196 100.436 145.648 99.9648C145.1 99.4933 144.304 99.2575 143.261 99.2575C142.525 99.2575 141.879 99.3994 141.323 99.6831C140.767 99.9668 140.302 100.346 139.926 100.822C139.55 101.297 139.267 101.843 139.075 102.461C138.883 103.078 138.787 103.716 138.787 104.376C138.787 104.905 138.86 105.38 139.006 105.802C139.152 106.224 139.364 106.584 139.644 106.883C139.924 107.182 140.269 107.41 140.679 107.567C141.09 107.724 141.559 107.803 142.088 107.803C142.74 107.803 143.313 107.684 143.808 107.447C144.302 107.209 144.722 106.814 145.067 106.262L145.09 106.262L144.952 107.642L145.481 107.642L146.344 103.467L142.836 103.467L142.675 104.134L145.504 104.134C145.435 104.564 145.311 104.962 145.13 105.33C144.95 105.698 144.72 106.017 144.44 106.285C144.16 106.553 143.835 106.764 143.463 106.917C143.091 107.071 142.679 107.147 142.226 107.147C141.789 107.147 141.404 107.08 141.07 106.946C140.737 106.812 140.459 106.62 140.237 106.371C140.014 106.122 139.847 105.825 139.736 105.48C139.625 105.135 139.569 104.751 139.569 104.33C139.569 103.778 139.658 103.237 139.834 102.708C140.01 102.179 140.256 101.709 140.57 101.299C140.884 100.889 141.266 100.557 141.714 100.304C142.163 100.051 142.656 99.9246 143.192 99.9246C143.951 99.9246 144.557 100.091 145.01 100.425C145.462 100.758 145.704 101.27 145.734 101.96Z" fill="#000000" fill-rule="nonzero" opacity="1" stroke="#171717" stroke-linecap="butt" stroke-linejoin="round" stroke-width="0"/>
<path d="M155.807 104.261L151.931 104.261C151.992 103.985 152.088 103.72 152.219 103.467C152.349 103.214 152.512 102.99 152.707 102.794C152.903 102.599 153.125 102.441 153.374 102.323C153.624 102.204 153.898 102.144 154.197 102.144C154.703 102.144 155.1 102.294 155.387 102.593C155.675 102.892 155.818 103.295 155.818 103.801C155.818 103.877 155.817 103.952 155.813 104.025C155.809 104.098 155.807 104.176 155.807 104.261ZM151.839 104.87L156.486 104.87C156.509 104.694 156.524 104.521 156.532 104.353C156.539 104.184 156.543 104.015 156.543 103.847C156.543 103.502 156.493 103.187 156.394 102.903C156.294 102.62 156.146 102.376 155.951 102.173C155.755 101.97 155.519 101.813 155.243 101.702C154.967 101.59 154.649 101.535 154.289 101.535C153.783 101.535 153.33 101.642 152.932 101.857C152.533 102.072 152.196 102.355 151.919 102.708C151.643 103.061 151.435 103.461 151.293 103.91C151.151 104.358 151.08 104.82 151.08 105.296C151.08 106.078 151.285 106.691 151.695 107.136C152.105 107.581 152.705 107.803 153.495 107.803C154.208 107.803 154.787 107.627 155.232 107.274C155.677 106.921 155.999 106.408 156.198 105.733L155.473 105.733C155.335 106.17 155.098 106.525 154.76 106.797C154.423 107.069 154.013 107.205 153.53 107.205C153.238 107.205 152.983 107.157 152.765 107.061C152.546 106.965 152.366 106.835 152.224 106.67C152.082 106.505 151.977 106.308 151.908 106.078C151.839 105.848 151.804 105.599 151.804 105.33C151.804 105.162 151.816 105.008 151.839 104.87Z" fill="#000000" fill-rule="nonzero" opacity="1" stroke="#171717" stroke-linecap="butt" stroke-linejoin="round" stroke-width="0"/>
<path d="M161.601 105.71L160.888 105.71C160.873 106.086 160.926 106.406 161.049 106.67C161.172 106.935 161.337 107.151 161.544 107.32C161.751 107.489 161.99 107.611 162.263 107.688C162.535 107.765 162.817 107.803 163.108 107.803C163.392 107.803 163.675 107.772 163.959 107.711C164.243 107.65 164.5 107.548 164.73 107.406C164.96 107.264 165.146 107.078 165.287 106.848C165.429 106.618 165.5 106.335 165.5 105.997C165.5 105.721 165.437 105.491 165.31 105.307C165.184 105.123 165.027 104.966 164.839 104.836C164.651 104.705 164.444 104.596 164.218 104.508C163.992 104.42 163.775 104.333 163.568 104.249C163.399 104.18 163.24 104.111 163.091 104.042C162.941 103.973 162.809 103.896 162.694 103.812C162.579 103.728 162.487 103.632 162.418 103.525C162.349 103.417 162.314 103.295 162.314 103.156C162.314 102.949 162.362 102.781 162.458 102.65C162.554 102.52 162.673 102.418 162.815 102.346C162.956 102.273 163.114 102.221 163.286 102.19C163.459 102.16 163.625 102.144 163.786 102.144C163.986 102.144 164.174 102.169 164.35 102.219C164.526 102.269 164.678 102.348 164.804 102.455C164.931 102.562 165.029 102.696 165.098 102.857C165.167 103.018 165.193 103.214 165.178 103.444L165.903 103.444C165.91 103.099 165.862 102.806 165.759 102.564C165.655 102.323 165.51 102.125 165.322 101.972C165.134 101.818 164.91 101.707 164.649 101.638C164.388 101.569 164.101 101.535 163.786 101.535C163.549 101.535 163.3 101.565 163.039 101.627C162.778 101.688 162.54 101.784 162.326 101.914C162.111 102.045 161.935 102.211 161.797 102.415C161.659 102.618 161.59 102.865 161.59 103.156C161.59 103.402 161.636 103.611 161.728 103.783C161.82 103.956 161.94 104.105 162.09 104.232C162.24 104.358 162.41 104.466 162.602 104.554C162.794 104.642 162.985 104.725 163.177 104.801C163.369 104.878 163.56 104.953 163.752 105.025C163.944 105.098 164.114 105.183 164.264 105.279C164.413 105.374 164.536 105.487 164.632 105.618C164.728 105.748 164.776 105.913 164.776 106.112C164.776 106.304 164.728 106.469 164.632 106.607C164.536 106.745 164.415 106.858 164.27 106.946C164.124 107.034 163.963 107.1 163.786 107.142C163.61 107.184 163.441 107.205 163.28 107.205C163.073 107.205 162.868 107.182 162.665 107.136C162.462 107.09 162.282 107.009 162.125 106.894C161.967 106.779 161.841 106.626 161.745 106.434C161.649 106.243 161.601 106.001 161.601 105.71Z" fill="#000000" fill-rule="nonzero" opacity="1" stroke="#171717" stroke-linecap="butt" stroke-linejoin="round" stroke-width="0"/>
<path d="M175.044 107.642L176.321 101.707L175.596 101.707L174.94 104.755C174.856 105.131 174.737 105.47 174.584 105.773C174.43 106.076 174.252 106.333 174.049 106.544C173.846 106.755 173.623 106.917 173.382 107.032C173.14 107.147 172.885 107.205 172.617 107.205C172.456 107.205 172.301 107.186 172.151 107.147C172.002 107.109 171.869 107.048 171.754 106.963C171.639 106.879 171.547 106.768 171.478 106.63C171.409 106.492 171.375 106.327 171.375 106.135C171.375 106.036 171.383 105.934 171.398 105.831C171.413 105.727 171.432 105.629 171.455 105.537L172.284 101.707L171.559 101.707L170.742 105.514C170.681 105.821 170.65 106.055 170.65 106.216C170.65 106.5 170.694 106.743 170.783 106.946C170.871 107.149 170.995 107.314 171.156 107.441C171.317 107.567 171.507 107.659 171.726 107.717C171.944 107.774 172.184 107.803 172.445 107.803C172.889 107.803 173.298 107.684 173.669 107.447C174.041 107.209 174.338 106.914 174.561 106.561L174.584 106.561L174.377 107.642L175.044 107.642Z" fill="#000000" fill-rule="nonzero" opacity="1" stroke="#171717" stroke-linecap="butt" stroke-linejoin="round" stroke-width="0"/>
<path d="M181.747 101.707L180.482 107.642L181.195 107.642L181.85 104.594C181.927 104.218 182.042 103.879 182.195 103.576C182.349 103.273 182.529 103.017 182.736 102.806C182.943 102.595 183.169 102.432 183.414 102.317C183.66 102.202 183.913 102.144 184.174 102.144C184.335 102.144 184.49 102.164 184.639 102.202C184.789 102.24 184.921 102.302 185.036 102.386C185.151 102.47 185.243 102.58 185.312 102.714C185.381 102.848 185.416 103.015 185.416 103.214C185.416 103.314 185.408 103.415 185.393 103.519C185.377 103.622 185.358 103.72 185.335 103.812L184.507 107.642L185.232 107.642L186.048 103.835C186.11 103.528 186.14 103.295 186.14 103.133C186.14 102.85 186.096 102.606 186.008 102.403C185.92 102.2 185.795 102.035 185.634 101.909C185.473 101.782 185.283 101.688 185.065 101.627C184.846 101.565 184.607 101.535 184.346 101.535C183.901 101.535 183.493 101.656 183.121 101.897C182.749 102.139 182.452 102.436 182.23 102.788L182.207 102.788L182.414 101.707L181.747 101.707Z" fill="#000000" fill-rule="nonzero" opacity="1" stroke="#171717" stroke-linecap="butt" stroke-linejoin="round" stroke-width="0"/>
<path d="M195.811 107.642L197.57 99.43L196.846 99.43L196.133 102.823L196.11 102.823C195.979 102.355 195.741 102.024 195.396 101.828C195.051 101.633 194.645 101.535 194.177 101.535C193.679 101.535 193.23 101.65 192.832 101.88C192.433 102.11 192.092 102.409 191.808 102.777C191.524 103.145 191.308 103.559 191.158 104.019C191.009 104.479 190.934 104.935 190.934 105.388C190.934 106.116 191.12 106.701 191.492 107.142C191.864 107.583 192.429 107.803 193.188 107.803C193.71 107.803 194.137 107.696 194.471 107.481C194.804 107.266 195.097 106.963 195.35 106.572L195.373 106.572L195.109 107.642L195.811 107.642ZM193.257 107.205C192.713 107.205 192.31 107.036 192.05 106.699C191.789 106.362 191.658 105.94 191.658 105.434C191.658 105.073 191.712 104.7 191.819 104.312C191.927 103.925 192.086 103.571 192.297 103.249C192.508 102.926 192.772 102.662 193.09 102.455C193.409 102.248 193.775 102.144 194.189 102.144C194.718 102.144 195.126 102.298 195.414 102.604C195.701 102.911 195.845 103.329 195.845 103.858C195.845 104.226 195.788 104.608 195.672 105.002C195.557 105.397 195.391 105.758 195.172 106.084C194.954 106.409 194.683 106.678 194.361 106.889C194.039 107.1 193.671 107.205 193.257 107.205Z" fill="#000000" fill-rule="nonzero" opacity="1" stroke="#171717" stroke-linecap="butt" stroke-linejoin="round" stroke-width="0"/>
<path d="M203.019 99.43L201.26 107.642L201.973 107.642L202.628 104.594C202.705 104.218 202.82 103.879 202.973 103.576C203.127 103.273 203.307 103.017 203.514 102.806C203.721 102.595 203.947 102.432 204.193 102.317C204.438 102.202 204.691 102.144 204.952 102.144C205.113 102.144 205.268 102.164 205.417 102.202C205.567 102.24 205.699 102.302 205.814 102.386C205.929 102.47 206.021 102.58 206.09 102.714C206.159 102.848 206.194 103.015 206.194 103.214C206.194 103.314 206.186 103.415 206.171 103.519C206.155 103.622 206.136 103.72 206.113 103.812L205.285 107.642L206.01 107.642L206.826 103.835C206.888 103.528 206.918 103.295 206.918 103.133C206.918 102.85 206.874 102.606 206.786 102.403C206.698 102.2 206.573 102.035 206.412 101.909C206.251 101.782 206.062 101.688 205.843 101.627C205.624 101.565 205.385 101.535 205.124 101.535C204.679 101.535 204.273 101.656 203.905 101.897C203.537 102.139 203.249 102.436 203.042 102.788L203.019 102.788L203.744 99.43L203.019 99.43Z" fill="#000000" fill-rule="nonzero" opacity="1" stroke="#171717" stroke-linecap="butt" stroke-linejoin="round" stroke-width="0"/>
<path d="M216.439 104.261L212.563 104.261C212.624 103.985 212.72 103.72 212.851 103.467C212.981 103.214 213.144 102.99 213.339 102.794C213.535 102.599 213.757 102.441 214.007 102.323C214.256 102.204 214.53 102.144 214.829 102.144C215.335 102.144 215.732 102.294 216.019 102.593C216.307 102.892 216.451 103.295 216.451 103.801C216.451 103.877 216.449 103.952 216.445 104.025C216.441 104.098 216.439 104.176 216.439 104.261ZM212.471 104.87L217.118 104.87C217.141 104.694 217.156 104.521 217.164 104.353C217.171 104.184 217.175 104.015 217.175 103.847C217.175 103.502 217.125 103.187 217.026 102.903C216.926 102.62 216.778 102.376 216.583 102.173C216.387 101.97 216.152 101.813 215.876 101.702C215.599 101.59 215.281 101.535 214.921 101.535C214.415 101.535 213.962 101.642 213.564 101.857C213.165 102.072 212.828 102.355 212.552 102.708C212.276 103.061 212.067 103.461 211.925 103.91C211.783 104.358 211.712 104.82 211.712 105.296C211.712 106.078 211.917 106.691 212.327 107.136C212.738 107.581 213.338 107.803 214.127 107.803C214.84 107.803 215.419 107.627 215.864 107.274C216.309 106.921 216.631 106.408 216.83 105.733L216.106 105.733C215.968 106.17 215.73 106.525 215.392 106.797C215.055 107.069 214.645 107.205 214.162 107.205C213.87 107.205 213.615 107.157 213.397 107.061C213.178 106.965 212.998 106.835 212.856 106.67C212.715 106.505 212.609 106.308 212.54 106.078C212.471 105.848 212.437 105.599 212.437 105.33C212.437 105.162 212.448 105.008 212.471 104.87Z" fill="#000000" fill-rule="nonzero" opacity="1" stroke="#171717" stroke-linecap="butt" stroke-linejoin="round" stroke-width="0"/>
<path d="M223.165 99.43L222.912 100.592L223.637 100.592L223.89 99.43L223.165 99.43ZM222.67 101.707L221.405 107.642L222.118 107.642L223.395 101.707L222.67 101.707Z" fill="#000000" fill-rule="nonzero" opacity="1" stroke="#171717" stroke-linecap="butt" stroke-linejoin="round" stroke-width="0"/>
<path d="M228.143 101.707L228.005 102.317L229.074 102.317L228.258 106.25C228.227 106.381 228.206 106.5 228.194 106.607C228.183 106.714 228.177 106.799 228.177 106.86C228.177 107.036 228.208 107.18 228.269 107.291C228.33 107.402 228.413 107.489 228.516 107.55C228.62 107.611 228.737 107.652 228.867 107.671C228.998 107.69 229.132 107.7 229.27 107.7C229.392 107.7 229.515 107.696 229.638 107.688C229.76 107.68 229.883 107.669 230.006 107.654L230.132 107.032C229.849 107.078 229.565 107.101 229.281 107.101C229.143 107.101 229.045 107.059 228.988 106.975C228.93 106.891 228.902 106.795 228.902 106.687C228.902 106.595 228.907 106.513 228.919 106.44C228.93 106.367 228.952 106.262 228.982 106.124L229.799 102.317L231.006 102.317L231.121 101.707L229.937 101.707L230.316 99.9131L229.592 99.9131L229.212 101.707L228.143 101.707Z" fill="#000000" fill-rule="nonzero" opacity="1" stroke="#171717" stroke-linecap="butt" stroke-linejoin="round" stroke-width="0"/>
<path d="M235.766 105.71L235.052 105.71C235.037 106.086 235.091 106.406 235.213 106.67C235.336 106.935 235.501 107.151 235.708 107.32C235.915 107.489 236.155 107.611 236.427 107.688C236.699 107.765 236.981 107.803 237.272 107.803C237.556 107.803 237.84 107.772 238.123 107.711C238.407 107.65 238.664 107.548 238.894 107.406C239.124 107.264 239.31 107.078 239.452 106.848C239.594 106.618 239.665 106.335 239.665 105.997C239.665 105.721 239.601 105.491 239.475 105.307C239.348 105.123 239.191 104.966 239.003 104.836C238.815 104.705 238.608 104.596 238.382 104.508C238.156 104.42 237.939 104.333 237.732 104.249C237.564 104.18 237.404 104.111 237.255 104.042C237.105 103.973 236.973 103.896 236.858 103.812C236.743 103.728 236.651 103.632 236.582 103.525C236.513 103.417 236.479 103.295 236.479 103.156C236.479 102.949 236.527 102.781 236.622 102.65C236.718 102.52 236.837 102.418 236.979 102.346C237.121 102.273 237.278 102.221 237.45 102.19C237.623 102.16 237.79 102.144 237.951 102.144C238.15 102.144 238.338 102.169 238.514 102.219C238.691 102.269 238.842 102.348 238.969 102.455C239.095 102.562 239.193 102.696 239.262 102.857C239.331 103.018 239.358 103.214 239.342 103.444L240.067 103.444C240.075 103.099 240.027 102.806 239.923 102.564C239.82 102.323 239.674 102.125 239.486 101.972C239.298 101.818 239.074 101.707 238.813 101.638C238.553 101.569 238.265 101.535 237.951 101.535C237.713 101.535 237.464 101.565 237.203 101.627C236.943 101.688 236.705 101.784 236.49 101.914C236.275 102.045 236.099 102.211 235.961 102.415C235.823 102.618 235.754 102.865 235.754 103.156C235.754 103.402 235.8 103.611 235.892 103.783C235.984 103.956 236.105 104.105 236.254 104.232C236.404 104.358 236.574 104.466 236.766 104.554C236.958 104.642 237.15 104.725 237.341 104.801C237.533 104.878 237.725 104.953 237.916 105.025C238.108 105.098 238.279 105.183 238.428 105.279C238.578 105.374 238.7 105.487 238.796 105.618C238.892 105.748 238.94 105.913 238.94 106.112C238.94 106.304 238.892 106.469 238.796 106.607C238.7 106.745 238.58 106.858 238.434 106.946C238.288 107.034 238.127 107.1 237.951 107.142C237.774 107.184 237.606 107.205 237.445 107.205C237.238 107.205 237.033 107.182 236.829 107.136C236.626 107.09 236.446 107.009 236.289 106.894C236.132 106.779 236.005 106.626 235.909 106.434C235.813 106.243 235.766 106.001 235.766 105.71Z" fill="#000000" fill-rule="nonzero" opacity="1" stroke="#171717" stroke-linecap="butt" stroke-linejoin="round" stroke-width="0"/>
<path d="M245.735 101.707L244.47 107.642L245.183 107.642L245.827 104.629C245.903 104.284 246.013 103.96 246.155 103.657C246.296 103.354 246.463 103.091 246.655 102.869C246.847 102.647 247.061 102.47 247.299 102.34C247.537 102.21 247.786 102.144 248.047 102.144C248.399 102.144 248.654 102.248 248.811 102.455C248.969 102.662 249.047 102.911 249.047 103.202C249.047 103.387 249.024 103.578 248.978 103.778L248.15 107.642L248.875 107.642L249.461 104.905C249.546 104.521 249.645 104.163 249.76 103.829C249.875 103.496 250.019 103.204 250.192 102.955C250.364 102.706 250.567 102.509 250.801 102.363C251.035 102.217 251.309 102.144 251.624 102.144C252.015 102.144 252.3 102.24 252.48 102.432C252.661 102.624 252.751 102.865 252.751 103.156C252.751 103.348 252.728 103.548 252.682 103.755L251.842 107.642L252.567 107.642L253.395 103.778C253.418 103.655 253.437 103.538 253.452 103.427C253.468 103.316 253.475 103.206 253.475 103.099C253.475 102.639 253.345 102.263 253.084 101.972C252.824 101.68 252.406 101.535 251.831 101.535C251.386 101.535 250.985 101.654 250.629 101.891C250.272 102.129 249.979 102.432 249.749 102.8L249.726 102.8C249.687 102.378 249.542 102.062 249.289 101.851C249.036 101.64 248.702 101.535 248.288 101.535C247.843 101.535 247.437 101.654 247.069 101.891C246.701 102.129 246.41 102.42 246.195 102.765L246.172 102.742L246.402 101.707L245.735 101.707Z" fill="#000000" fill-rule="nonzero" opacity="1" stroke="#171717" stroke-linecap="butt" stroke-linejoin="round" stroke-width="0"/>
<path d="M258.878 103.479L259.603 103.479C259.641 103.233 259.716 103.024 259.827 102.852C259.938 102.679 260.078 102.541 260.247 102.438C260.416 102.334 260.604 102.259 260.811 102.213C261.018 102.167 261.236 102.144 261.466 102.144C261.604 102.144 261.748 102.156 261.898 102.179C262.047 102.202 262.181 102.244 262.3 102.305C262.419 102.367 262.519 102.453 262.599 102.564C262.68 102.675 262.72 102.819 262.72 102.995C262.72 103.387 262.66 103.663 262.542 103.824C262.423 103.985 262.245 104.096 262.007 104.157C261.777 104.218 261.503 104.247 261.184 104.243C260.866 104.24 260.512 104.268 260.121 104.33C259.852 104.376 259.595 104.439 259.35 104.519C259.105 104.6 258.886 104.709 258.694 104.847C258.503 104.985 258.351 105.162 258.24 105.376C258.129 105.591 258.073 105.856 258.073 106.17C258.073 106.461 258.121 106.71 258.217 106.917C258.313 107.124 258.443 107.293 258.608 107.424C258.773 107.554 258.97 107.65 259.2 107.711C259.431 107.772 259.684 107.803 259.96 107.803C260.374 107.803 260.769 107.709 261.144 107.521C261.52 107.333 261.811 107.067 262.018 106.722L262.041 106.745C262.034 106.799 262.028 106.852 262.024 106.906C262.02 106.96 262.018 107.013 262.018 107.067C262.034 107.489 262.245 107.7 262.651 107.7C262.858 107.7 263.057 107.68 263.249 107.642L263.352 107.078C263.299 107.086 263.251 107.092 263.209 107.096C263.167 107.1 263.119 107.101 263.065 107.101C262.981 107.101 262.896 107.088 262.812 107.061C262.728 107.034 262.685 106.967 262.685 106.86C262.685 106.768 262.693 106.676 262.708 106.584C262.724 106.492 262.747 106.373 262.777 106.227C262.808 106.082 262.848 105.9 262.898 105.681C262.948 105.463 263.007 105.188 263.076 104.859C263.107 104.728 263.144 104.577 263.186 104.404C263.228 104.232 263.268 104.056 263.306 103.875C263.345 103.695 263.377 103.517 263.404 103.341C263.431 103.164 263.445 103.003 263.445 102.857C263.445 102.589 263.376 102.371 263.237 102.202C263.099 102.033 262.927 101.899 262.72 101.799C262.513 101.7 262.289 101.631 262.047 101.592C261.806 101.554 261.585 101.535 261.386 101.535C261.071 101.535 260.772 101.573 260.489 101.65C260.205 101.726 259.952 101.843 259.73 102.001C259.507 102.158 259.321 102.359 259.172 102.604C259.022 102.85 258.924 103.141 258.878 103.479ZM262.467 104.468L262.237 105.468C262.122 105.997 261.884 106.419 261.524 106.733C261.163 107.048 260.692 107.205 260.109 107.205C259.94 107.205 259.776 107.186 259.615 107.147C259.454 107.109 259.312 107.046 259.189 106.958C259.066 106.87 258.969 106.758 258.896 106.624C258.823 106.49 258.786 106.327 258.786 106.135C258.786 105.821 258.867 105.578 259.028 105.405C259.189 105.233 259.388 105.102 259.626 105.014C259.864 104.926 260.119 104.868 260.391 104.841C260.663 104.815 260.91 104.794 261.133 104.778C261.225 104.771 261.334 104.763 261.461 104.755C261.587 104.748 261.712 104.732 261.834 104.709C261.957 104.686 262.074 104.654 262.185 104.611C262.296 104.569 262.383 104.514 262.444 104.445L262.467 104.468Z" fill="#000000" fill-rule="nonzero" opacity="1" stroke="#171717" stroke-linecap="butt" stroke-linejoin="round" stroke-width="0"/>
<path d="M269.285 101.707L268.02 107.642L268.733 107.642L269.388 104.594C269.465 104.218 269.58 103.879 269.733 103.576C269.887 103.273 270.067 103.017 270.274 102.806C270.481 102.595 270.707 102.432 270.952 102.317C271.198 102.202 271.451 102.144 271.712 102.144C271.873 102.144 272.028 102.164 272.177 102.202C272.327 102.24 272.459 102.302 272.574 102.386C272.689 102.47 272.781 102.58 272.85 102.714C272.919 102.848 272.954 103.015 272.954 103.214C272.954 103.314 272.946 103.415 272.931 103.519C272.915 103.622 272.896 103.72 272.873 103.812L272.045 107.642L272.77 107.642L273.586 103.835C273.648 103.528 273.678 103.295 273.678 103.133C273.678 102.85 273.634 102.606 273.546 102.403C273.458 102.2 273.333 102.035 273.172 101.909C273.011 101.782 272.821 101.688 272.603 101.627C272.384 101.565 272.145 101.535 271.884 101.535C271.439 101.535 271.031 101.656 270.659 101.897C270.287 102.139 269.99 102.436 269.768 102.788L269.745 102.788L269.952 101.707L269.285 101.707Z" fill="#000000" fill-rule="nonzero" opacity="1" stroke="#171717" stroke-linecap="butt" stroke-linejoin="round" stroke-width="0"/>
<path d="M279.024 103.479L279.749 103.479C279.787 103.233 279.862 103.024 279.973 102.852C280.084 102.679 280.224 102.541 280.393 102.438C280.561 102.334 280.749 102.259 280.956 102.213C281.163 102.167 281.382 102.144 281.612 102.144C281.75 102.144 281.894 102.156 282.043 102.179C282.193 102.202 282.327 102.244 282.446 102.305C282.564 102.367 282.664 102.453 282.745 102.564C282.825 102.675 282.865 102.819 282.865 102.995C282.865 103.387 282.806 103.663 282.687 103.824C282.568 103.985 282.39 104.096 282.152 104.157C281.922 104.218 281.648 104.247 281.33 104.243C281.012 104.24 280.657 104.268 280.266 104.33C279.998 104.376 279.741 104.439 279.496 104.519C279.25 104.6 279.032 104.709 278.84 104.847C278.648 104.985 278.497 105.162 278.386 105.376C278.274 105.591 278.219 105.856 278.219 106.17C278.219 106.461 278.267 106.71 278.363 106.917C278.458 107.124 278.589 107.293 278.754 107.424C278.919 107.554 279.116 107.65 279.346 107.711C279.576 107.772 279.829 107.803 280.105 107.803C280.519 107.803 280.914 107.709 281.29 107.521C281.665 107.333 281.957 107.067 282.164 106.722L282.187 106.745C282.179 106.799 282.173 106.852 282.17 106.906C282.166 106.96 282.164 107.013 282.164 107.067C282.179 107.489 282.39 107.7 282.796 107.7C283.003 107.7 283.203 107.68 283.395 107.642L283.498 107.078C283.444 107.086 283.396 107.092 283.354 107.096C283.312 107.1 283.264 107.101 283.21 107.101C283.126 107.101 283.042 107.088 282.957 107.061C282.873 107.034 282.831 106.967 282.831 106.86C282.831 106.768 282.839 106.676 282.854 106.584C282.869 106.492 282.892 106.373 282.923 106.227C282.954 106.082 282.994 105.9 283.044 105.681C283.094 105.463 283.153 105.188 283.222 104.859C283.253 104.728 283.289 104.577 283.331 104.404C283.373 104.232 283.414 104.056 283.452 103.875C283.49 103.695 283.523 103.517 283.55 103.341C283.577 103.164 283.59 103.003 283.59 102.857C283.59 102.589 283.521 102.371 283.383 102.202C283.245 102.033 283.072 101.899 282.865 101.799C282.658 101.7 282.434 101.631 282.193 101.592C281.951 101.554 281.731 101.535 281.531 101.535C281.217 101.535 280.918 101.573 280.634 101.65C280.35 101.726 280.097 101.843 279.875 102.001C279.653 102.158 279.467 102.359 279.317 102.604C279.168 102.85 279.07 103.141 279.024 103.479ZM282.612 104.468L282.382 105.468C282.267 105.997 282.03 106.419 281.669 106.733C281.309 107.048 280.837 107.205 280.255 107.205C280.086 107.205 279.921 107.186 279.76 107.147C279.599 107.109 279.457 107.046 279.335 106.958C279.212 106.87 279.114 106.758 279.041 106.624C278.968 106.49 278.932 106.327 278.932 106.135C278.932 105.821 279.012 105.578 279.173 105.405C279.335 105.233 279.534 105.102 279.772 105.014C280.009 104.926 280.264 104.868 280.536 104.841C280.809 104.815 281.056 104.794 281.278 104.778C281.37 104.771 281.48 104.763 281.606 104.755C281.733 104.748 281.857 104.732 281.98 104.709C282.103 104.686 282.219 104.654 282.331 104.611C282.442 104.569 282.528 104.514 282.589 104.445L282.612 104.468Z" fill="#000000" fill-rule="nonzero" opacity="1" stroke="#171717" stroke-linecap="butt" stroke-linejoin="round" stroke-width="0"/>
<path d="M293.318 107.021L294.445 101.707L293.778 101.707L293.525 102.926L293.502 102.926C293.463 102.696 293.383 102.493 293.26 102.317C293.138 102.141 292.986 101.995 292.806 101.88C292.626 101.765 292.428 101.679 292.214 101.621C291.999 101.564 291.78 101.535 291.558 101.535C291.083 101.535 290.657 101.638 290.281 101.845C289.906 102.052 289.587 102.325 289.327 102.662C289.066 102.999 288.867 103.381 288.729 103.806C288.591 104.232 288.522 104.663 288.522 105.1C288.522 105.445 288.57 105.763 288.665 106.055C288.761 106.346 288.901 106.601 289.085 106.82C289.269 107.038 289.499 107.209 289.775 107.332C290.051 107.454 290.366 107.516 290.718 107.516C291.117 107.516 291.504 107.422 291.88 107.234C292.256 107.046 292.543 106.776 292.743 106.423L292.766 106.446C292.72 106.615 292.674 106.804 292.628 107.015C292.582 107.226 292.524 107.439 292.455 107.654C292.386 107.868 292.3 108.081 292.196 108.292C292.093 108.503 291.963 108.689 291.805 108.85C291.648 109.011 291.458 109.141 291.236 109.241C291.014 109.34 290.749 109.39 290.442 109.39C290.228 109.39 290.021 109.369 289.821 109.327C289.622 109.285 289.446 109.214 289.292 109.114C289.139 109.015 289.014 108.88 288.918 108.712C288.823 108.543 288.775 108.332 288.775 108.079L288.062 108.079C288.069 108.432 288.134 108.731 288.257 108.976C288.38 109.222 288.545 109.419 288.752 109.569C288.959 109.718 289.198 109.827 289.471 109.896C289.743 109.965 290.032 110 290.339 110C290.799 110 291.192 109.94 291.518 109.822C291.844 109.703 292.122 109.523 292.352 109.281C292.582 109.039 292.773 108.731 292.927 108.355C293.08 107.979 293.21 107.535 293.318 107.021ZM289.246 105.043C289.246 104.705 289.298 104.366 289.402 104.025C289.505 103.684 289.658 103.373 289.862 103.093C290.065 102.813 290.312 102.585 290.603 102.409C290.895 102.233 291.225 102.144 291.593 102.144C291.884 102.144 292.133 102.19 292.34 102.282C292.547 102.374 292.716 102.501 292.846 102.662C292.977 102.823 293.07 103.015 293.128 103.237C293.185 103.459 293.214 103.701 293.214 103.962C293.214 104.291 293.161 104.631 293.053 104.979C292.946 105.328 292.789 105.647 292.582 105.934C292.375 106.222 292.125 106.455 291.834 106.636C291.543 106.816 291.213 106.906 290.845 106.906C290.569 106.906 290.331 106.856 290.132 106.756C289.933 106.657 289.766 106.521 289.632 106.348C289.497 106.176 289.4 105.978 289.338 105.756C289.277 105.533 289.246 105.296 289.246 105.043Z" fill="#000000" fill-rule="nonzero" opacity="1" stroke="#171717" stroke-linecap="butt" stroke-linejoin="round" stroke-width="0"/>
<path d="M303.563 104.261L299.687 104.261C299.748 103.985 299.844 103.72 299.975 103.467C300.105 103.214 300.268 102.99 300.463 102.794C300.659 102.599 300.881 102.441 301.13 102.323C301.38 102.204 301.654 102.144 301.953 102.144C302.459 102.144 302.856 102.294 303.143 102.593C303.431 102.892 303.575 103.295 303.575 103.801C303.575 103.877 303.573 103.952 303.569 104.025C303.565 104.098 303.563 104.176 303.563 104.261ZM299.595 104.87L304.242 104.87C304.265 104.694 304.28 104.521 304.288 104.353C304.295 104.184 304.299 104.015 304.299 103.847C304.299 103.502 304.249 103.187 304.15 102.903C304.05 102.62 303.902 102.376 303.707 102.173C303.511 101.97 303.276 101.813 302.999 101.702C302.723 101.59 302.405 101.535 302.045 101.535C301.539 101.535 301.086 101.642 300.688 101.857C300.289 102.072 299.952 102.355 299.676 102.708C299.4 103.061 299.191 103.461 299.049 103.91C298.907 104.358 298.836 104.82 298.836 105.296C298.836 106.078 299.041 106.691 299.451 107.136C299.862 107.581 300.461 107.803 301.251 107.803C301.964 107.803 302.543 107.627 302.988 107.274C303.433 106.921 303.755 106.408 303.954 105.733L303.23 105.733C303.091 106.17 302.854 106.525 302.516 106.797C302.179 107.069 301.769 107.205 301.286 107.205C300.994 107.205 300.739 107.157 300.521 107.061C300.302 106.965 300.122 106.835 299.98 106.67C299.839 106.505 299.733 106.308 299.664 106.078C299.595 105.848 299.561 105.599 299.561 105.33C299.561 105.162 299.572 105.008 299.595 104.87Z" fill="#000000" fill-rule="nonzero" opacity="1" stroke="#171717" stroke-linecap="butt" stroke-linejoin="round" stroke-width="0"/>
<path d="M309.794 101.707L308.529 107.642L309.242 107.642L309.886 104.629C309.963 104.284 310.072 103.96 310.214 103.657C310.356 103.354 310.523 103.091 310.714 102.869C310.906 102.647 311.121 102.47 311.359 102.34C311.596 102.21 311.845 102.144 312.106 102.144C312.459 102.144 312.714 102.248 312.871 102.455C313.028 102.662 313.107 102.911 313.107 103.202C313.107 103.387 313.084 103.578 313.038 103.778L312.21 107.642L312.934 107.642L313.521 104.905C313.605 104.521 313.705 104.163 313.82 103.829C313.935 103.496 314.079 103.204 314.251 102.955C314.424 102.706 314.627 102.509 314.861 102.363C315.095 102.217 315.369 102.144 315.683 102.144C316.074 102.144 316.36 102.24 316.54 102.432C316.72 102.624 316.81 102.865 316.81 103.156C316.81 103.348 316.787 103.548 316.741 103.755L315.902 107.642L316.626 107.642L317.454 103.778C317.477 103.655 317.496 103.538 317.512 103.427C317.527 103.316 317.535 103.206 317.535 103.099C317.535 102.639 317.404 102.263 317.144 101.972C316.883 101.68 316.465 101.535 315.89 101.535C315.445 101.535 315.045 101.654 314.688 101.891C314.332 102.129 314.038 102.432 313.808 102.8L313.785 102.8C313.747 102.378 313.601 102.062 313.348 101.851C313.095 101.64 312.762 101.535 312.348 101.535C311.903 101.535 311.497 101.654 311.129 101.891C310.76 102.129 310.469 102.42 310.254 102.765L310.231 102.742L310.461 101.707L309.794 101.707Z" fill="#000000" fill-rule="nonzero" opacity="1" stroke="#171717" stroke-linecap="butt" stroke-linejoin="round" stroke-width="0"/>
<path d="M327.113 104.261L323.237 104.261C323.298 103.985 323.394 103.72 323.525 103.467C323.655 103.214 323.818 102.99 324.013 102.794C324.209 102.599 324.431 102.441 324.68 102.323C324.93 102.204 325.204 102.144 325.503 102.144C326.009 102.144 326.406 102.294 326.693 102.593C326.981 102.892 327.125 103.295 327.125 103.801C327.125 103.877 327.123 103.952 327.119 104.025C327.115 104.098 327.113 104.176 327.113 104.261ZM323.145 104.87L327.792 104.87C327.815 104.694 327.83 104.521 327.838 104.353C327.845 104.184 327.849 104.015 327.849 103.847C327.849 103.502 327.799 103.187 327.7 102.903C327.6 102.62 327.452 102.376 327.257 102.173C327.061 101.97 326.825 101.813 326.549 101.702C326.273 101.59 325.955 101.535 325.595 101.535C325.089 101.535 324.636 101.642 324.238 101.857C323.839 102.072 323.502 102.355 323.226 102.708C322.949 103.061 322.741 103.461 322.599 103.91C322.457 104.358 322.386 104.82 322.386 105.296C322.386 106.078 322.591 106.691 323.001 107.136C323.411 107.581 324.011 107.803 324.801 107.803C325.514 107.803 326.093 107.627 326.538 107.274C326.983 106.921 327.305 106.408 327.504 105.733L326.779 105.733C326.641 106.17 326.404 106.525 326.066 106.797C325.729 107.069 325.319 107.205 324.836 107.205C324.544 107.205 324.289 107.157 324.071 107.061C323.852 106.965 323.672 106.835 323.53 106.67C323.388 106.505 323.283 106.308 323.214 106.078C323.145 105.848 323.111 105.599 323.111 105.33C323.111 105.162 323.122 105.008 323.145 104.87Z" fill="#000000" fill-rule="nonzero" opacity="1" stroke="#171717" stroke-linecap="butt" stroke-linejoin="round" stroke-width="0"/>
<path d="M333.344 101.707L332.079 107.642L332.792 107.642L333.448 104.594C333.524 104.218 333.64 103.879 333.793 103.576C333.946 103.273 334.126 103.017 334.333 102.806C334.54 102.595 334.767 102.432 335.012 102.317C335.257 102.202 335.51 102.144 335.771 102.144C335.932 102.144 336.087 102.164 336.237 102.202C336.386 102.24 336.519 102.302 336.634 102.386C336.749 102.47 336.841 102.58 336.91 102.714C336.979 102.848 337.013 103.015 337.013 103.214C337.013 103.314 337.006 103.415 336.99 103.519C336.975 103.622 336.956 103.72 336.933 103.812L336.105 107.642L336.829 107.642L337.646 103.835C337.707 103.528 337.738 103.295 337.738 103.133C337.738 102.85 337.694 102.606 337.606 102.403C337.517 102.2 337.393 102.035 337.232 101.909C337.071 101.782 336.881 101.688 336.662 101.627C336.444 101.565 336.204 101.535 335.944 101.535C335.499 101.535 335.091 101.656 334.719 101.897C334.347 102.139 334.05 102.436 333.827 102.788L333.804 102.788L334.011 101.707L333.344 101.707Z" fill="#000000" fill-rule="nonzero" opacity="1" stroke="#171717" stroke-linecap="butt" stroke-linejoin="round" stroke-width="0"/>
<path d="M342.865 101.707L342.727 102.317L343.797 102.317L342.98 106.25C342.949 106.381 342.928 106.5 342.917 106.607C342.905 106.714 342.9 106.799 342.9 106.86C342.9 107.036 342.93 107.18 342.992 107.291C343.053 107.402 343.135 107.489 343.239 107.55C343.342 107.611 343.459 107.652 343.59 107.671C343.72 107.69 343.854 107.7 343.992 107.7C344.115 107.7 344.238 107.696 344.36 107.688C344.483 107.68 344.606 107.669 344.728 107.654L344.855 107.032C344.571 107.078 344.287 107.101 344.004 107.101C343.866 107.101 343.768 107.059 343.71 106.975C343.653 106.891 343.624 106.795 343.624 106.687C343.624 106.595 343.63 106.513 343.641 106.44C343.653 106.367 343.674 106.262 343.705 106.124L344.521 102.317L345.729 102.317L345.844 101.707L344.659 101.707L345.039 99.9131L344.314 99.9131L343.935 101.707L342.865 101.707Z" fill="#000000" fill-rule="nonzero" opacity="1" stroke="#171717" stroke-linecap="butt" stroke-linejoin="round" stroke-width="0"/>
</g>
</g>
<g clip-path="url(#ArtboardFrame)" id="Ebene-3" vectornator:layerName="Ebene 3" visibility="hidden">
<g opacity="1">
<g opacity="1">
<path d="M79.7363 20.4657C79.7363 16.4498 82.9931 13.1942 87.0105 13.1942C91.028 13.1942 94.2847 16.4498 94.2847 20.4657C94.2847 24.4817 91.028 27.7372 87.0105 27.7372C82.9931 27.7372 79.7363 24.4817 79.7363 20.4657Z" fill="#b2b2b2" fill-rule="nonzero" opacity="1" stroke="#000000" stroke-linecap="butt" stroke-linejoin="round" stroke-width="1.5"/>
<path d="M81.6643 41.0829C55.4363 41.0829 17.0361 66.0804 17.0361 91.7888C17.0361 109.035 26.7832 117.337 36.395 120.981C36.4334 120.996 36.4738 120.996 36.5122 121.01C58.1723 121.01 77.0851 101.121 80.2272 97.6653C72.3307 105.679 61.6961 110.414 50.3756 110.356C37.0696 110.289 28.8434 97.5983 28.9357 86.0881C29.1267 62.2978 63.2353 42.372 81.6643 41.0829Z" fill="#000000" fill-rule="nonzero" opacity="1" stroke="#000000" stroke-linecap="butt" stroke-linejoin="round" stroke-width="1.5"/>
<path d="M78.2157 117.79C78.2157 117.79 81.5196 115.909 84.0954 113.754C86.6711 111.599 88.7652 109.41 88.7652 109.41C88.7652 109.41 91.4253 112.035 94.5426 114.635C97.66 117.234 101.235 119.808 101.235 119.808C101.235 119.808 94.7184 119.685 89.0253 119.241C83.3322 118.796 78.2157 117.79 78.2157 117.79Z" fill="#000000" fill-rule="nonzero" opacity="1" stroke="#000000" stroke-linecap="butt" stroke-linejoin="round" stroke-width="1.5"/>
<path d="M91.8485 41.176C91.8485 41.176 95.9037 41.5179 100.096 40.8779C104.288 40.2379 108.617 38.6161 108.617 38.6161C108.617 38.6161 107.228 41.4883 104.388 43.7114C101.548 45.9345 97.2572 47.5085 97.2572 47.5085C97.2572 47.5085 96.0656 45.6824 94.7135 44.0993C93.3613 42.5162 91.8485 41.176 91.8485 41.176Z" fill="#000000" fill-rule="nonzero" opacity="1" stroke="#000000" stroke-linecap="butt" stroke-linejoin="round" stroke-width="1.5"/>
<path d="M83.8323 38.8853C84.6084 39.9344 93.1688 48.6202 93.5777 64.0767C93.5777 76.9793 88.8616 88.1671 81.4436 96.3317L81.4582 96.3757C81.4582 96.3757 81.0071 96.8352 80.96 96.8886C80.8325 97.0244 80.7226 97.1796 80.5936 97.3136C80.4754 97.4363 80.3467 97.5441 80.2272 97.6653C77.0851 101.121 58.1723 121.01 36.5122 121.01C36.5137 121.011 36.5108 121.024 36.5122 121.025C41.1877 122.779 45.8275 123.435 49.2765 123.487C65.0232 123.724 100.828 111.361 101.696 69.3378C101.645 48.7214 86.0517 40.2159 84.0228 38.8999C83.7692 38.7354 83.7214 38.7354 83.8323 38.8853Z" fill="#b2b2b2" fill-rule="nonzero" opacity="1" stroke="#000000" stroke-linecap="butt" stroke-linejoin="round" stroke-width="1.5"/>
</g>
<path d="M120.081 81.7277C120.081 82.3529 120.194 82.9344 120.419 83.4722C120.644 84.0099 120.95 84.4788 121.338 84.879C121.726 85.2792 122.189 85.5918 122.726 85.8169C123.264 86.042 123.845 86.1546 124.471 86.1546C125.071 86.1546 125.64 86.042 126.178 85.8169C126.715 85.5918 127.178 85.2792 127.566 84.879C127.953 84.4788 128.266 84.0161 128.504 83.4909C128.741 82.9657 128.86 82.403 128.86 81.8027C128.86 81.2024 128.741 80.6335 128.504 80.0957C128.266 79.558 127.953 79.089 127.566 78.6889C127.178 78.2887 126.715 77.9761 126.178 77.751C125.64 77.5259 125.071 77.4133 124.471 77.4133C123.845 77.4133 123.264 77.5259 122.726 77.751C122.189 77.9761 121.726 78.2887 121.338 78.6889C120.95 79.089 120.644 79.5455 120.419 80.0582C120.194 80.5709 120.081 81.1274 120.081 81.7277ZM128.635 72.1611L135.463 72.1611L135.463 91.4068L128.635 91.4068L128.635 89.2684C127.184 91.0942 125.221 92.0071 122.745 92.0071C121.344 92.0071 120.056 91.7507 118.881 91.238C117.705 90.7253 116.68 90.0062 115.805 89.0808C114.929 88.1554 114.248 87.0675 113.76 85.8169C113.272 84.5664 113.028 83.2033 113.028 81.7277C113.028 80.3521 113.266 79.0453 113.741 77.8072C114.216 76.5692 114.879 75.4875 115.73 74.5621C116.58 73.6367 117.593 72.9051 118.768 72.3674C119.944 71.8297 121.244 71.5608 122.67 71.5608C125.071 71.5608 127.059 72.3987 128.635 74.0744L128.635 72.1611Z" fill="#000000" fill-rule="nonzero" opacity="1" stroke="#000000" stroke-linecap="butt" stroke-linejoin="round" stroke-width="1.5"/>
<path d="M141.197 78.6792L141.197 89.6015L144.94 89.6015L144.94 91.4068L139.276 91.4068L139.276 78.6792L141.197 78.6792Z" fill="#000000" fill-rule="nonzero" opacity="1" stroke="none"/>
<path d="M148.682 78.6792L148.682 89.6015L152.424 89.6015L152.424 91.4068L146.761 91.4068L146.761 78.6792L148.682 78.6792Z" fill="#000000" fill-rule="nonzero" opacity="1" stroke="none"/>
<path d="M174.159 72.1611L174.159 91.4068L167.369 91.4068L167.369 72.1611L174.159 72.1611ZM166.919 64.7704C166.919 64.2452 167.019 63.7512 167.219 63.2885C167.419 62.8258 167.694 62.4194 168.044 62.0693C168.394 61.7191 168.801 61.444 169.263 61.2439C169.726 61.0438 170.22 60.9438 170.745 60.9438C171.27 60.9438 171.764 61.0438 172.227 61.2439C172.69 61.444 173.096 61.7191 173.446 62.0693C173.796 62.4194 174.072 62.8258 174.272 63.2885C174.472 63.7512 174.572 64.2452 174.572 64.7704C174.572 65.2956 174.472 65.7896 174.272 66.2523C174.072 66.715 173.796 67.1214 173.446 67.4716C173.096 67.8217 172.69 68.0968 172.227 68.2969C171.764 68.497 171.27 68.5971 170.745 68.5971C170.22 68.5971 169.726 68.497 169.263 68.2969C168.801 68.0968 168.394 67.8217 168.044 67.4716C167.694 67.1214 167.419 66.715 167.219 66.2523C167.019 65.7896 166.919 65.2956 166.919 64.7704Z" fill="#b2b2b2" fill-rule="nonzero" opacity="1" stroke="#000000" stroke-linecap="butt" stroke-linejoin="round" stroke-width="1.5"/>
<path d="M178.01 91.4068L178.01 77.8137L187.292 87.5242L187.292 78.6792L189.213 78.6792L189.213 92.1817L179.931 82.4958L179.931 91.4068L178.01 91.4068Z" fill="#000000" fill-rule="nonzero" opacity="1" stroke="none"/>
<path d="M207.405 81.6902C207.405 82.3404 207.524 82.9344 207.761 83.4722C207.999 84.0099 208.312 84.4788 208.699 84.879C209.087 85.2792 209.55 85.5918 210.087 85.8169C210.625 86.042 211.194 86.1546 211.794 86.1546C212.395 86.1546 212.964 86.042 213.501 85.8169C214.039 85.5918 214.502 85.2792 214.889 84.879C215.277 84.4788 215.59 84.0099 215.827 83.4722C216.065 82.9344 216.184 82.3529 216.184 81.7277C216.184 81.1274 216.065 80.5584 215.827 80.0207C215.59 79.483 215.277 79.014 214.889 78.6138C214.502 78.2137 214.039 77.901 213.501 77.6759C212.964 77.4508 212.395 77.3383 211.794 77.3383C211.194 77.3383 210.625 77.4508 210.087 77.6759C209.55 77.901 209.087 78.2137 208.699 78.6138C208.312 79.014 207.999 79.4767 207.761 80.0019C207.524 80.5272 207.405 81.0899 207.405 81.6902ZM200.239 81.6151C200.239 80.1895 200.527 78.8577 201.102 77.6197C201.677 76.3816 202.478 75.3062 203.503 74.3933C204.529 73.4804 205.748 72.7613 207.161 72.2361C208.574 71.7109 210.119 71.4483 211.794 71.4483C213.445 71.4483 214.977 71.7046 216.39 72.2174C217.803 72.7301 219.029 73.4429 220.067 74.3558C221.105 75.2687 221.911 76.3566 222.486 77.6197C223.062 78.8827 223.349 80.277 223.349 81.8027C223.349 83.3284 223.055 84.7227 222.468 85.9857C221.88 87.2488 221.073 88.3367 220.048 89.2496C219.022 90.1625 217.791 90.8691 216.353 91.3693C214.914 91.8695 213.357 92.1196 211.682 92.1196C210.031 92.1196 208.505 91.8695 207.105 91.3693C205.704 90.8691 204.497 90.1563 203.485 89.2309C202.472 88.3055 201.677 87.1988 201.102 85.9107C200.527 84.6227 200.239 83.1908 200.239 81.6151Z" fill="#000000" fill-rule="nonzero" opacity="1" stroke="#000000" stroke-linecap="butt" stroke-linejoin="round" stroke-width="1.5"/>
<path d="M226.45 91.4068L226.45 77.8137L235.732 87.5242L235.732 78.6792L237.653 78.6792L237.653 92.1817L228.371 82.4958L228.371 91.4068L226.45 91.4068Z" fill="#000000" fill-rule="nonzero" opacity="1" stroke="none"/>
<path d="M247.726 80.4845L242.623 80.4845L242.623 83.5427L247.577 83.5427L247.577 85.348L242.623 85.348L242.623 89.6015L247.726 89.6015L247.726 91.4068L240.703 91.4068L240.703 78.6792L247.726 78.6792L247.726 80.4845Z" fill="#000000" fill-rule="nonzero" opacity="1" stroke="none"/>
<path d="M145.734 101.96L146.516 101.96C146.486 101.102 146.196 100.436 145.648 99.9648C145.1 99.4933 144.304 99.2575 143.261 99.2575C142.525 99.2575 141.879 99.3994 141.323 99.6831C140.767 99.9668 140.302 100.346 139.926 100.822C139.55 101.297 139.267 101.843 139.075 102.461C138.883 103.078 138.787 103.716 138.787 104.376C138.787 104.905 138.86 105.38 139.006 105.802C139.152 106.224 139.364 106.584 139.644 106.883C139.924 107.182 140.269 107.41 140.679 107.567C141.09 107.724 141.559 107.803 142.088 107.803C142.74 107.803 143.313 107.684 143.808 107.447C144.302 107.209 144.722 106.814 145.067 106.262L145.09 106.262L144.952 107.642L145.481 107.642L146.344 103.467L142.836 103.467L142.675 104.134L145.504 104.134C145.435 104.564 145.311 104.962 145.13 105.33C144.95 105.698 144.72 106.017 144.44 106.285C144.16 106.553 143.835 106.764 143.463 106.917C143.091 107.071 142.679 107.147 142.226 107.147C141.789 107.147 141.404 107.08 141.07 106.946C140.737 106.812 140.459 106.62 140.237 106.371C140.014 106.122 139.847 105.825 139.736 105.48C139.625 105.135 139.569 104.751 139.569 104.33C139.569 103.778 139.658 103.237 139.834 102.708C140.01 102.179 140.256 101.709 140.57 101.299C140.884 100.889 141.266 100.557 141.714 100.304C142.163 100.051 142.656 99.9246 143.192 99.9246C143.951 99.9246 144.557 100.091 145.01 100.425C145.462 100.758 145.704 101.27 145.734 101.96Z" fill="#000000" fill-rule="nonzero" opacity="1" stroke="#171717" stroke-linecap="butt" stroke-linejoin="round" stroke-width="0"/>
<path d="M155.807 104.261L151.931 104.261C151.992 103.985 152.088 103.72 152.219 103.467C152.349 103.214 152.512 102.99 152.707 102.794C152.903 102.599 153.125 102.441 153.374 102.323C153.624 102.204 153.898 102.144 154.197 102.144C154.703 102.144 155.1 102.294 155.387 102.593C155.675 102.892 155.818 103.295 155.818 103.801C155.818 103.877 155.817 103.952 155.813 104.025C155.809 104.098 155.807 104.176 155.807 104.261ZM151.839 104.87L156.486 104.87C156.509 104.694 156.524 104.521 156.532 104.353C156.539 104.184 156.543 104.015 156.543 103.847C156.543 103.502 156.493 103.187 156.394 102.903C156.294 102.62 156.146 102.376 155.951 102.173C155.755 101.97 155.519 101.813 155.243 101.702C154.967 101.59 154.649 101.535 154.289 101.535C153.783 101.535 153.33 101.642 152.932 101.857C152.533 102.072 152.196 102.355 151.919 102.708C151.643 103.061 151.435 103.461 151.293 103.91C151.151 104.358 151.08 104.82 151.08 105.296C151.08 106.078 151.285 106.691 151.695 107.136C152.105 107.581 152.705 107.803 153.495 107.803C154.208 107.803 154.787 107.627 155.232 107.274C155.677 106.921 155.999 106.408 156.198 105.733L155.473 105.733C155.335 106.17 155.098 106.525 154.76 106.797C154.423 107.069 154.013 107.205 153.53 107.205C153.238 107.205 152.983 107.157 152.765 107.061C152.546 106.965 152.366 106.835 152.224 106.67C152.082 106.505 151.977 106.308 151.908 106.078C151.839 105.848 151.804 105.599 151.804 105.33C151.804 105.162 151.816 105.008 151.839 104.87Z" fill="#000000" fill-rule="nonzero" opacity="1" stroke="#171717" stroke-linecap="butt" stroke-linejoin="round" stroke-width="0"/>
<path d="M161.601 105.71L160.888 105.71C160.873 106.086 160.926 106.406 161.049 106.67C161.172 106.935 161.337 107.151 161.544 107.32C161.751 107.489 161.99 107.611 162.263 107.688C162.535 107.765 162.817 107.803 163.108 107.803C163.392 107.803 163.675 107.772 163.959 107.711C164.243 107.65 164.5 107.548 164.73 107.406C164.96 107.264 165.146 107.078 165.287 106.848C165.429 106.618 165.5 106.335 165.5 105.997C165.5 105.721 165.437 105.491 165.31 105.307C165.184 105.123 165.027 104.966 164.839 104.836C164.651 104.705 164.444 104.596 164.218 104.508C163.992 104.42 163.775 104.333 163.568 104.249C163.399 104.18 163.24 104.111 163.091 104.042C162.941 103.973 162.809 103.896 162.694 103.812C162.579 103.728 162.487 103.632 162.418 103.525C162.349 103.417 162.314 103.295 162.314 103.156C162.314 102.949 162.362 102.781 162.458 102.65C162.554 102.52 162.673 102.418 162.815 102.346C162.956 102.273 163.114 102.221 163.286 102.19C163.459 102.16 163.625 102.144 163.786 102.144C163.986 102.144 164.174 102.169 164.35 102.219C164.526 102.269 164.678 102.348 164.804 102.455C164.931 102.562 165.029 102.696 165.098 102.857C165.167 103.018 165.193 103.214 165.178 103.444L165.903 103.444C165.91 103.099 165.862 102.806 165.759 102.564C165.655 102.323 165.51 102.125 165.322 101.972C165.134 101.818 164.91 101.707 164.649 101.638C164.388 101.569 164.101 101.535 163.786 101.535C163.549 101.535 163.3 101.565 163.039 101.627C162.778 101.688 162.54 101.784 162.326 101.914C162.111 102.045 161.935 102.211 161.797 102.415C161.659 102.618 161.59 102.865 161.59 103.156C161.59 103.402 161.636 103.611 161.728 103.783C161.82 103.956 161.94 104.105 162.09 104.232C162.24 104.358 162.41 104.466 162.602 104.554C162.794 104.642 162.985 104.725 163.177 104.801C163.369 104.878 163.56 104.953 163.752 105.025C163.944 105.098 164.114 105.183 164.264 105.279C164.413 105.374 164.536 105.487 164.632 105.618C164.728 105.748 164.776 105.913 164.776 106.112C164.776 106.304 164.728 106.469 164.632 106.607C164.536 106.745 164.415 106.858 164.27 106.946C164.124 107.034 163.963 107.1 163.786 107.142C163.61 107.184 163.441 107.205 163.28 107.205C163.073 107.205 162.868 107.182 162.665 107.136C162.462 107.09 162.282 107.009 162.125 106.894C161.967 106.779 161.841 106.626 161.745 106.434C161.649 106.243 161.601 106.001 161.601 105.71Z" fill="#000000" fill-rule="nonzero" opacity="1" stroke="#171717" stroke-linecap="butt" stroke-linejoin="round" stroke-width="0"/>
<path d="M175.044 107.642L176.321 101.707L175.596 101.707L174.94 104.755C174.856 105.131 174.737 105.47 174.584 105.773C174.43 106.076 174.252 106.333 174.049 106.544C173.846 106.755 173.623 106.917 173.382 107.032C173.14 107.147 172.885 107.205 172.617 107.205C172.456 107.205 172.301 107.186 172.151 107.147C172.002 107.109 171.869 107.048 171.754 106.963C171.639 106.879 171.547 106.768 171.478 106.63C171.409 106.492 171.375 106.327 171.375 106.135C171.375 106.036 171.383 105.934 171.398 105.831C171.413 105.727 171.432 105.629 171.455 105.537L172.284 101.707L171.559 101.707L170.742 105.514C170.681 105.821 170.65 106.055 170.65 106.216C170.65 106.5 170.694 106.743 170.783 106.946C170.871 107.149 170.995 107.314 171.156 107.441C171.317 107.567 171.507 107.659 171.726 107.717C171.944 107.774 172.184 107.803 172.445 107.803C172.889 107.803 173.298 107.684 173.669 107.447C174.041 107.209 174.338 106.914 174.561 106.561L174.584 106.561L174.377 107.642L175.044 107.642Z" fill="#000000" fill-rule="nonzero" opacity="1" stroke="#171717" stroke-linecap="butt" stroke-linejoin="round" stroke-width="0"/>
<path d="M181.747 101.707L180.482 107.642L181.195 107.642L181.85 104.594C181.927 104.218 182.042 103.879 182.195 103.576C182.349 103.273 182.529 103.017 182.736 102.806C182.943 102.595 183.169 102.432 183.414 102.317C183.66 102.202 183.913 102.144 184.174 102.144C184.335 102.144 184.49 102.164 184.639 102.202C184.789 102.24 184.921 102.302 185.036 102.386C185.151 102.47 185.243 102.58 185.312 102.714C185.381 102.848 185.416 103.015 185.416 103.214C185.416 103.314 185.408 103.415 185.393 103.519C185.377 103.622 185.358 103.72 185.335 103.812L184.507 107.642L185.232 107.642L186.048 103.835C186.11 103.528 186.14 103.295 186.14 103.133C186.14 102.85 186.096 102.606 186.008 102.403C185.92 102.2 185.795 102.035 185.634 101.909C185.473 101.782 185.283 101.688 185.065 101.627C184.846 101.565 184.607 101.535 184.346 101.535C183.901 101.535 183.493 101.656 183.121 101.897C182.749 102.139 182.452 102.436 182.23 102.788L182.207 102.788L182.414 101.707L181.747 101.707Z" fill="#000000" fill-rule="nonzero" opacity="1" stroke="#171717" stroke-linecap="butt" stroke-linejoin="round" stroke-width="0"/>
<path d="M195.811 107.642L197.57 99.43L196.846 99.43L196.133 102.823L196.11 102.823C195.979 102.355 195.741 102.024 195.396 101.828C195.051 101.633 194.645 101.535 194.177 101.535C193.679 101.535 193.23 101.65 192.832 101.88C192.433 102.11 192.092 102.409 191.808 102.777C191.524 103.145 191.308 103.559 191.158 104.019C191.009 104.479 190.934 104.935 190.934 105.388C190.934 106.116 191.12 106.701 191.492 107.142C191.864 107.583 192.429 107.803 193.188 107.803C193.71 107.803 194.137 107.696 194.471 107.481C194.804 107.266 195.097 106.963 195.35 106.572L195.373 106.572L195.109 107.642L195.811 107.642ZM193.257 107.205C192.713 107.205 192.31 107.036 192.05 106.699C191.789 106.362 191.658 105.94 191.658 105.434C191.658 105.073 191.712 104.7 191.819 104.312C191.927 103.925 192.086 103.571 192.297 103.249C192.508 102.926 192.772 102.662 193.09 102.455C193.409 102.248 193.775 102.144 194.189 102.144C194.718 102.144 195.126 102.298 195.414 102.604C195.701 102.911 195.845 103.329 195.845 103.858C195.845 104.226 195.788 104.608 195.672 105.002C195.557 105.397 195.391 105.758 195.172 106.084C194.954 106.409 194.683 106.678 194.361 106.889C194.039 107.1 193.671 107.205 193.257 107.205Z" fill="#000000" fill-rule="nonzero" opacity="1" stroke="#171717" stroke-linecap="butt" stroke-linejoin="round" stroke-width="0"/>
<path d="M203.019 99.43L201.26 107.642L201.973 107.642L202.628 104.594C202.705 104.218 202.82 103.879 202.973 103.576C203.127 103.273 203.307 103.017 203.514 102.806C203.721 102.595 203.947 102.432 204.193 102.317C204.438 102.202 204.691 102.144 204.952 102.144C205.113 102.144 205.268 102.164 205.417 102.202C205.567 102.24 205.699 102.302 205.814 102.386C205.929 102.47 206.021 102.58 206.09 102.714C206.159 102.848 206.194 103.015 206.194 103.214C206.194 103.314 206.186 103.415 206.171 103.519C206.155 103.622 206.136 103.72 206.113 103.812L205.285 107.642L206.01 107.642L206.826 103.835C206.888 103.528 206.918 103.295 206.918 103.133C206.918 102.85 206.874 102.606 206.786 102.403C206.698 102.2 206.573 102.035 206.412 101.909C206.251 101.782 206.062 101.688 205.843 101.627C205.624 101.565 205.385 101.535 205.124 101.535C204.679 101.535 204.273 101.656 203.905 101.897C203.537 102.139 203.249 102.436 203.042 102.788L203.019 102.788L203.744 99.43L203.019 99.43Z" fill="#000000" fill-rule="nonzero" opacity="1" stroke="#171717" stroke-linecap="butt" stroke-linejoin="round" stroke-width="0"/>
<path d="M216.439 104.261L212.563 104.261C212.624 103.985 212.72 103.72 212.851 103.467C212.981 103.214 213.144 102.99 213.339 102.794C213.535 102.599 213.757 102.441 214.007 102.323C214.256 102.204 214.53 102.144 214.829 102.144C215.335 102.144 215.732 102.294 216.019 102.593C216.307 102.892 216.451 103.295 216.451 103.801C216.451 103.877 216.449 103.952 216.445 104.025C216.441 104.098 216.439 104.176 216.439 104.261ZM212.471 104.87L217.118 104.87C217.141 104.694 217.156 104.521 217.164 104.353C217.171 104.184 217.175 104.015 217.175 103.847C217.175 103.502 217.125 103.187 217.026 102.903C216.926 102.62 216.778 102.376 216.583 102.173C216.387 101.97 216.152 101.813 215.876 101.702C215.599 101.59 215.281 101.535 214.921 101.535C214.415 101.535 213.962 101.642 213.564 101.857C213.165 102.072 212.828 102.355 212.552 102.708C212.276 103.061 212.067 103.461 211.925 103.91C211.783 104.358 211.712 104.82 211.712 105.296C211.712 106.078 211.917 106.691 212.327 107.136C212.738 107.581 213.338 107.803 214.127 107.803C214.84 107.803 215.419 107.627 215.864 107.274C216.309 106.921 216.631 106.408 216.83 105.733L216.106 105.733C215.968 106.17 215.73 106.525 215.392 106.797C215.055 107.069 214.645 107.205 214.162 107.205C213.87 107.205 213.615 107.157 213.397 107.061C213.178 106.965 212.998 106.835 212.856 106.67C212.715 106.505 212.609 106.308 212.54 106.078C212.471 105.848 212.437 105.599 212.437 105.33C212.437 105.162 212.448 105.008 212.471 104.87Z" fill="#000000" fill-rule="nonzero" opacity="1" stroke="#171717" stroke-linecap="butt" stroke-linejoin="round" stroke-width="0"/>
<path d="M223.165 99.43L222.912 100.592L223.637 100.592L223.89 99.43L223.165 99.43ZM222.67 101.707L221.405 107.642L222.118 107.642L223.395 101.707L222.67 101.707Z" fill="#000000" fill-rule="nonzero" opacity="1" stroke="#171717" stroke-linecap="butt" stroke-linejoin="round" stroke-width="0"/>
<path d="M228.143 101.707L228.005 102.317L229.074 102.317L228.258 106.25C228.227 106.381 228.206 106.5 228.194 106.607C228.183 106.714 228.177 106.799 228.177 106.86C228.177 107.036 228.208 107.18 228.269 107.291C228.33 107.402 228.413 107.489 228.516 107.55C228.62 107.611 228.737 107.652 228.867 107.671C228.998 107.69 229.132 107.7 229.27 107.7C229.392 107.7 229.515 107.696 229.638 107.688C229.76 107.68 229.883 107.669 230.006 107.654L230.132 107.032C229.849 107.078 229.565 107.101 229.281 107.101C229.143 107.101 229.045 107.059 228.988 106.975C228.93 106.891 228.902 106.795 228.902 106.687C228.902 106.595 228.907 106.513 228.919 106.44C228.93 106.367 228.952 106.262 228.982 106.124L229.799 102.317L231.006 102.317L231.121 101.707L229.937 101.707L230.316 99.9131L229.592 99.9131L229.212 101.707L228.143 101.707Z" fill="#000000" fill-rule="nonzero" opacity="1" stroke="#171717" stroke-linecap="butt" stroke-linejoin="round" stroke-width="0"/>
<path d="M235.766 105.71L235.052 105.71C235.037 106.086 235.091 106.406 235.213 106.67C235.336 106.935 235.501 107.151 235.708 107.32C235.915 107.489 236.155 107.611 236.427 107.688C236.699 107.765 236.981 107.803 237.272 107.803C237.556 107.803 237.84 107.772 238.123 107.711C238.407 107.65 238.664 107.548 238.894 107.406C239.124 107.264 239.31 107.078 239.452 106.848C239.594 106.618 239.665 106.335 239.665 105.997C239.665 105.721 239.601 105.491 239.475 105.307C239.348 105.123 239.191 104.966 239.003 104.836C238.815 104.705 238.608 104.596 238.382 104.508C238.156 104.42 237.939 104.333 237.732 104.249C237.564 104.18 237.404 104.111 237.255 104.042C237.105 103.973 236.973 103.896 236.858 103.812C236.743 103.728 236.651 103.632 236.582 103.525C236.513 103.417 236.479 103.295 236.479 103.156C236.479 102.949 236.527 102.781 236.622 102.65C236.718 102.52 236.837 102.418 236.979 102.346C237.121 102.273 237.278 102.221 237.45 102.19C237.623 102.16 237.79 102.144 237.951 102.144C238.15 102.144 238.338 102.169 238.514 102.219C238.691 102.269 238.842 102.348 238.969 102.455C239.095 102.562 239.193 102.696 239.262 102.857C239.331 103.018 239.358 103.214 239.342 103.444L240.067 103.444C240.075 103.099 240.027 102.806 239.923 102.564C239.82 102.323 239.674 102.125 239.486 101.972C239.298 101.818 239.074 101.707 238.813 101.638C238.553 101.569 238.265 101.535 237.951 101.535C237.713 101.535 237.464 101.565 237.203 101.627C236.943 101.688 236.705 101.784 236.49 101.914C236.275 102.045 236.099 102.211 235.961 102.415C235.823 102.618 235.754 102.865 235.754 103.156C235.754 103.402 235.8 103.611 235.892 103.783C235.984 103.956 236.105 104.105 236.254 104.232C236.404 104.358 236.574 104.466 236.766 104.554C236.958 104.642 237.15 104.725 237.341 104.801C237.533 104.878 237.725 104.953 237.916 105.025C238.108 105.098 238.279 105.183 238.428 105.279C238.578 105.374 238.7 105.487 238.796 105.618C238.892 105.748 238.94 105.913 238.94 106.112C238.94 106.304 238.892 106.469 238.796 106.607C238.7 106.745 238.58 106.858 238.434 106.946C238.288 107.034 238.127 107.1 237.951 107.142C237.774 107.184 237.606 107.205 237.445 107.205C237.238 107.205 237.033 107.182 236.829 107.136C236.626 107.09 236.446 107.009 236.289 106.894C236.132 106.779 236.005 106.626 235.909 106.434C235.813 106.243 235.766 106.001 235.766 105.71Z" fill="#000000" fill-rule="nonzero" opacity="1" stroke="#171717" stroke-linecap="butt" stroke-linejoin="round" stroke-width="0"/>
<path d="M245.735 101.707L244.47 107.642L245.183 107.642L245.827 104.629C245.903 104.284 246.013 103.96 246.155 103.657C246.296 103.354 246.463 103.091 246.655 102.869C246.847 102.647 247.061 102.47 247.299 102.34C247.537 102.21 247.786 102.144 248.047 102.144C248.399 102.144 248.654 102.248 248.811 102.455C248.969 102.662 249.047 102.911 249.047 103.202C249.047 103.387 249.024 103.578 248.978 103.778L248.15 107.642L248.875 107.642L249.461 104.905C249.546 104.521 249.645 104.163 249.76 103.829C249.875 103.496 250.019 103.204 250.192 102.955C250.364 102.706 250.567 102.509 250.801 102.363C251.035 102.217 251.309 102.144 251.624 102.144C252.015 102.144 252.3 102.24 252.48 102.432C252.661 102.624 252.751 102.865 252.751 103.156C252.751 103.348 252.728 103.548 252.682 103.755L251.842 107.642L252.567 107.642L253.395 103.778C253.418 103.655 253.437 103.538 253.452 103.427C253.468 103.316 253.475 103.206 253.475 103.099C253.475 102.639 253.345 102.263 253.084 101.972C252.824 101.68 252.406 101.535 251.831 101.535C251.386 101.535 250.985 101.654 250.629 101.891C250.272 102.129 249.979 102.432 249.749 102.8L249.726 102.8C249.687 102.378 249.542 102.062 249.289 101.851C249.036 101.64 248.702 101.535 248.288 101.535C247.843 101.535 247.437 101.654 247.069 101.891C246.701 102.129 246.41 102.42 246.195 102.765L246.172 102.742L246.402 101.707L245.735 101.707Z" fill="#000000" fill-rule="nonzero" opacity="1" stroke="#171717" stroke-linecap="butt" stroke-linejoin="round" stroke-width="0"/>
<path d="M258.878 103.479L259.603 103.479C259.641 103.233 259.716 103.024 259.827 102.852C259.938 102.679 260.078 102.541 260.247 102.438C260.416 102.334 260.604 102.259 260.811 102.213C261.018 102.167 261.236 102.144 261.466 102.144C261.604 102.144 261.748 102.156 261.898 102.179C262.047 102.202 262.181 102.244 262.3 102.305C262.419 102.367 262.519 102.453 262.599 102.564C262.68 102.675 262.72 102.819 262.72 102.995C262.72 103.387 262.66 103.663 262.542 103.824C262.423 103.985 262.245 104.096 262.007 104.157C261.777 104.218 261.503 104.247 261.184 104.243C260.866 104.24 260.512 104.268 260.121 104.33C259.852 104.376 259.595 104.439 259.35 104.519C259.105 104.6 258.886 104.709 258.694 104.847C258.503 104.985 258.351 105.162 258.24 105.376C258.129 105.591 258.073 105.856 258.073 106.17C258.073 106.461 258.121 106.71 258.217 106.917C258.313 107.124 258.443 107.293 258.608 107.424C258.773 107.554 258.97 107.65 259.2 107.711C259.431 107.772 259.684 107.803 259.96 107.803C260.374 107.803 260.769 107.709 261.144 107.521C261.52 107.333 261.811 107.067 262.018 106.722L262.041 106.745C262.034 106.799 262.028 106.852 262.024 106.906C262.02 106.96 262.018 107.013 262.018 107.067C262.034 107.489 262.245 107.7 262.651 107.7C262.858 107.7 263.057 107.68 263.249 107.642L263.352 107.078C263.299 107.086 263.251 107.092 263.209 107.096C263.167 107.1 263.119 107.101 263.065 107.101C262.981 107.101 262.896 107.088 262.812 107.061C262.728 107.034 262.685 106.967 262.685 106.86C262.685 106.768 262.693 106.676 262.708 106.584C262.724 106.492 262.747 106.373 262.777 106.227C262.808 106.082 262.848 105.9 262.898 105.681C262.948 105.463 263.007 105.188 263.076 104.859C263.107 104.728 263.144 104.577 263.186 104.404C263.228 104.232 263.268 104.056 263.306 103.875C263.345 103.695 263.377 103.517 263.404 103.341C263.431 103.164 263.445 103.003 263.445 102.857C263.445 102.589 263.376 102.371 263.237 102.202C263.099 102.033 262.927 101.899 262.72 101.799C262.513 101.7 262.289 101.631 262.047 101.592C261.806 101.554 261.585 101.535 261.386 101.535C261.071 101.535 260.772 101.573 260.489 101.65C260.205 101.726 259.952 101.843 259.73 102.001C259.507 102.158 259.321 102.359 259.172 102.604C259.022 102.85 258.924 103.141 258.878 103.479ZM262.467 104.468L262.237 105.468C262.122 105.997 261.884 106.419 261.524 106.733C261.163 107.048 260.692 107.205 260.109 107.205C259.94 107.205 259.776 107.186 259.615 107.147C259.454 107.109 259.312 107.046 259.189 106.958C259.066 106.87 258.969 106.758 258.896 106.624C258.823 106.49 258.786 106.327 258.786 106.135C258.786 105.821 258.867 105.578 259.028 105.405C259.189 105.233 259.388 105.102 259.626 105.014C259.864 104.926 260.119 104.868 260.391 104.841C260.663 104.815 260.91 104.794 261.133 104.778C261.225 104.771 261.334 104.763 261.461 104.755C261.587 104.748 261.712 104.732 261.834 104.709C261.957 104.686 262.074 104.654 262.185 104.611C262.296 104.569 262.383 104.514 262.444 104.445L262.467 104.468Z" fill="#000000" fill-rule="nonzero" opacity="1" stroke="#171717" stroke-linecap="butt" stroke-linejoin="round" stroke-width="0"/>
<path d="M269.285 101.707L268.02 107.642L268.733 107.642L269.388 104.594C269.465 104.218 269.58 103.879 269.733 103.576C269.887 103.273 270.067 103.017 270.274 102.806C270.481 102.595 270.707 102.432 270.952 102.317C271.198 102.202 271.451 102.144 271.712 102.144C271.873 102.144 272.028 102.164 272.177 102.202C272.327 102.24 272.459 102.302 272.574 102.386C272.689 102.47 272.781 102.58 272.85 102.714C272.919 102.848 272.954 103.015 272.954 103.214C272.954 103.314 272.946 103.415 272.931 103.519C272.915 103.622 272.896 103.72 272.873 103.812L272.045 107.642L272.77 107.642L273.586 103.835C273.648 103.528 273.678 103.295 273.678 103.133C273.678 102.85 273.634 102.606 273.546 102.403C273.458 102.2 273.333 102.035 273.172 101.909C273.011 101.782 272.821 101.688 272.603 101.627C272.384 101.565 272.145 101.535 271.884 101.535C271.439 101.535 271.031 101.656 270.659 101.897C270.287 102.139 269.99 102.436 269.768 102.788L269.745 102.788L269.952 101.707L269.285 101.707Z" fill="#000000" fill-rule="nonzero" opacity="1" stroke="#171717" stroke-linecap="butt" stroke-linejoin="round" stroke-width="0"/>
<path d="M279.024 103.479L279.749 103.479C279.787 103.233 279.862 103.024 279.973 102.852C280.084 102.679 280.224 102.541 280.393 102.438C280.561 102.334 280.749 102.259 280.956 102.213C281.163 102.167 281.382 102.144 281.612 102.144C281.75 102.144 281.894 102.156 282.043 102.179C282.193 102.202 282.327 102.244 282.446 102.305C282.564 102.367 282.664 102.453 282.745 102.564C282.825 102.675 282.865 102.819 282.865 102.995C282.865 103.387 282.806 103.663 282.687 103.824C282.568 103.985 282.39 104.096 282.152 104.157C281.922 104.218 281.648 104.247 281.33 104.243C281.012 104.24 280.657 104.268 280.266 104.33C279.998 104.376 279.741 104.439 279.496 104.519C279.25 104.6 279.032 104.709 278.84 104.847C278.648 104.985 278.497 105.162 278.386 105.376C278.274 105.591 278.219 105.856 278.219 106.17C278.219 106.461 278.267 106.71 278.363 106.917C278.458 107.124 278.589 107.293 278.754 107.424C278.919 107.554 279.116 107.65 279.346 107.711C279.576 107.772 279.829 107.803 280.105 107.803C280.519 107.803 280.914 107.709 281.29 107.521C281.665 107.333 281.957 107.067 282.164 106.722L282.187 106.745C282.179 106.799 282.173 106.852 282.17 106.906C282.166 106.96 282.164 107.013 282.164 107.067C282.179 107.489 282.39 107.7 282.796 107.7C283.003 107.7 283.203 107.68 283.395 107.642L283.498 107.078C283.444 107.086 283.396 107.092 283.354 107.096C283.312 107.1 283.264 107.101 283.21 107.101C283.126 107.101 283.042 107.088 282.957 107.061C282.873 107.034 282.831 106.967 282.831 106.86C282.831 106.768 282.839 106.676 282.854 106.584C282.869 106.492 282.892 106.373 282.923 106.227C282.954 106.082 282.994 105.9 283.044 105.681C283.094 105.463 283.153 105.188 283.222 104.859C283.253 104.728 283.289 104.577 283.331 104.404C283.373 104.232 283.414 104.056 283.452 103.875C283.49 103.695 283.523 103.517 283.55 103.341C283.577 103.164 283.59 103.003 283.59 102.857C283.59 102.589 283.521 102.371 283.383 102.202C283.245 102.033 283.072 101.899 282.865 101.799C282.658 101.7 282.434 101.631 282.193 101.592C281.951 101.554 281.731 101.535 281.531 101.535C281.217 101.535 280.918 101.573 280.634 101.65C280.35 101.726 280.097 101.843 279.875 102.001C279.653 102.158 279.467 102.359 279.317 102.604C279.168 102.85 279.07 103.141 279.024 103.479ZM282.612 104.468L282.382 105.468C282.267 105.997 282.03 106.419 281.669 106.733C281.309 107.048 280.837 107.205 280.255 107.205C280.086 107.205 279.921 107.186 279.76 107.147C279.599 107.109 279.457 107.046 279.335 106.958C279.212 106.87 279.114 106.758 279.041 106.624C278.968 106.49 278.932 106.327 278.932 106.135C278.932 105.821 279.012 105.578 279.173 105.405C279.335 105.233 279.534 105.102 279.772 105.014C280.009 104.926 280.264 104.868 280.536 104.841C280.809 104.815 281.056 104.794 281.278 104.778C281.37 104.771 281.48 104.763 281.606 104.755C281.733 104.748 281.857 104.732 281.98 104.709C282.103 104.686 282.219 104.654 282.331 104.611C282.442 104.569 282.528 104.514 282.589 104.445L282.612 104.468Z" fill="#000000" fill-rule="nonzero" opacity="1" stroke="#171717" stroke-linecap="butt" stroke-linejoin="round" stroke-width="0"/>
<path d="M293.318 107.021L294.445 101.707L293.778 101.707L293.525 102.926L293.502 102.926C293.463 102.696 293.383 102.493 293.26 102.317C293.138 102.141 292.986 101.995 292.806 101.88C292.626 101.765 292.428 101.679 292.214 101.621C291.999 101.564 291.78 101.535 291.558 101.535C291.083 101.535 290.657 101.638 290.281 101.845C289.906 102.052 289.587 102.325 289.327 102.662C289.066 102.999 288.867 103.381 288.729 103.806C288.591 104.232 288.522 104.663 288.522 105.1C288.522 105.445 288.57 105.763 288.665 106.055C288.761 106.346 288.901 106.601 289.085 106.82C289.269 107.038 289.499 107.209 289.775 107.332C290.051 107.454 290.366 107.516 290.718 107.516C291.117 107.516 291.504 107.422 291.88 107.234C292.256 107.046 292.543 106.776 292.743 106.423L292.766 106.446C292.72 106.615 292.674 106.804 292.628 107.015C292.582 107.226 292.524 107.439 292.455 107.654C292.386 107.868 292.3 108.081 292.196 108.292C292.093 108.503 291.963 108.689 291.805 108.85C291.648 109.011 291.458 109.141 291.236 109.241C291.014 109.34 290.749 109.39 290.442 109.39C290.228 109.39 290.021 109.369 289.821 109.327C289.622 109.285 289.446 109.214 289.292 109.114C289.139 109.015 289.014 108.88 288.918 108.712C288.823 108.543 288.775 108.332 288.775 108.079L288.062 108.079C288.069 108.432 288.134 108.731 288.257 108.976C288.38 109.222 288.545 109.419 288.752 109.569C288.959 109.718 289.198 109.827 289.471 109.896C289.743 109.965 290.032 110 290.339 110C290.799 110 291.192 109.94 291.518 109.822C291.844 109.703 292.122 109.523 292.352 109.281C292.582 109.039 292.773 108.731 292.927 108.355C293.08 107.979 293.21 107.535 293.318 107.021ZM289.246 105.043C289.246 104.705 289.298 104.366 289.402 104.025C289.505 103.684 289.658 103.373 289.862 103.093C290.065 102.813 290.312 102.585 290.603 102.409C290.895 102.233 291.225 102.144 291.593 102.144C291.884 102.144 292.133 102.19 292.34 102.282C292.547 102.374 292.716 102.501 292.846 102.662C292.977 102.823 293.07 103.015 293.128 103.237C293.185 103.459 293.214 103.701 293.214 103.962C293.214 104.291 293.161 104.631 293.053 104.979C292.946 105.328 292.789 105.647 292.582 105.934C292.375 106.222 292.125 106.455 291.834 106.636C291.543 106.816 291.213 106.906 290.845 106.906C290.569 106.906 290.331 106.856 290.132 106.756C289.933 106.657 289.766 106.521 289.632 106.348C289.497 106.176 289.4 105.978 289.338 105.756C289.277 105.533 289.246 105.296 289.246 105.043Z" fill="#000000" fill-rule="nonzero" opacity="1" stroke="#171717" stroke-linecap="butt" stroke-linejoin="round" stroke-width="0"/>
<path d="M303.563 104.261L299.687 104.261C299.748 103.985 299.844 103.72 299.975 103.467C300.105 103.214 300.268 102.99 300.463 102.794C300.659 102.599 300.881 102.441 301.13 102.323C301.38 102.204 301.654 102.144 301.953 102.144C302.459 102.144 302.856 102.294 303.143 102.593C303.431 102.892 303.575 103.295 303.575 103.801C303.575 103.877 303.573 103.952 303.569 104.025C303.565 104.098 303.563 104.176 303.563 104.261ZM299.595 104.87L304.242 104.87C304.265 104.694 304.28 104.521 304.288 104.353C304.295 104.184 304.299 104.015 304.299 103.847C304.299 103.502 304.249 103.187 304.15 102.903C304.05 102.62 303.902 102.376 303.707 102.173C303.511 101.97 303.276 101.813 302.999 101.702C302.723 101.59 302.405 101.535 302.045 101.535C301.539 101.535 301.086 101.642 300.688 101.857C300.289 102.072 299.952 102.355 299.676 102.708C299.4 103.061 299.191 103.461 299.049 103.91C298.907 104.358 298.836 104.82 298.836 105.296C298.836 106.078 299.041 106.691 299.451 107.136C299.862 107.581 300.461 107.803 301.251 107.803C301.964 107.803 302.543 107.627 302.988 107.274C303.433 106.921 303.755 106.408 303.954 105.733L303.23 105.733C303.091 106.17 302.854 106.525 302.516 106.797C302.179 107.069 301.769 107.205 301.286 107.205C300.994 107.205 300.739 107.157 300.521 107.061C300.302 106.965 300.122 106.835 299.98 106.67C299.839 106.505 299.733 106.308 299.664 106.078C299.595 105.848 299.561 105.599 299.561 105.33C299.561 105.162 299.572 105.008 299.595 104.87Z" fill="#000000" fill-rule="nonzero" opacity="1" stroke="#171717" stroke-linecap="butt" stroke-linejoin="round" stroke-width="0"/>
<path d="M309.794 101.707L308.529 107.642L309.242 107.642L309.886 104.629C309.963 104.284 310.072 103.96 310.214 103.657C310.356 103.354 310.523 103.091 310.714 102.869C310.906 102.647 311.121 102.47 311.359 102.34C311.596 102.21 311.845 102.144 312.106 102.144C312.459 102.144 312.714 102.248 312.871 102.455C313.028 102.662 313.107 102.911 313.107 103.202C313.107 103.387 313.084 103.578 313.038 103.778L312.21 107.642L312.934 107.642L313.521 104.905C313.605 104.521 313.705 104.163 313.82 103.829C313.935 103.496 314.079 103.204 314.251 102.955C314.424 102.706 314.627 102.509 314.861 102.363C315.095 102.217 315.369 102.144 315.683 102.144C316.074 102.144 316.36 102.24 316.54 102.432C316.72 102.624 316.81 102.865 316.81 103.156C316.81 103.348 316.787 103.548 316.741 103.755L315.902 107.642L316.626 107.642L317.454 103.778C317.477 103.655 317.496 103.538 317.512 103.427C317.527 103.316 317.535 103.206 317.535 103.099C317.535 102.639 317.404 102.263 317.144 101.972C316.883 101.68 316.465 101.535 315.89 101.535C315.445 101.535 315.045 101.654 314.688 101.891C314.332 102.129 314.038 102.432 313.808 102.8L313.785 102.8C313.747 102.378 313.601 102.062 313.348 101.851C313.095 101.64 312.762 101.535 312.348 101.535C311.903 101.535 311.497 101.654 311.129 101.891C310.76 102.129 310.469 102.42 310.254 102.765L310.231 102.742L310.461 101.707L309.794 101.707Z" fill="#000000" fill-rule="nonzero" opacity="1" stroke="#171717" stroke-linecap="butt" stroke-linejoin="round" stroke-width="0"/>
<path d="M327.113 104.261L323.237 104.261C323.298 103.985 323.394 103.72 323.525 103.467C323.655 103.214 323.818 102.99 324.013 102.794C324.209 102.599 324.431 102.441 324.68 102.323C324.93 102.204 325.204 102.144 325.503 102.144C326.009 102.144 326.406 102.294 326.693 102.593C326.981 102.892 327.125 103.295 327.125 103.801C327.125 103.877 327.123 103.952 327.119 104.025C327.115 104.098 327.113 104.176 327.113 104.261ZM323.145 104.87L327.792 104.87C327.815 104.694 327.83 104.521 327.838 104.353C327.845 104.184 327.849 104.015 327.849 103.847C327.849 103.502 327.799 103.187 327.7 102.903C327.6 102.62 327.452 102.376 327.257 102.173C327.061 101.97 326.825 101.813 326.549 101.702C326.273 101.59 325.955 101.535 325.595 101.535C325.089 101.535 324.636 101.642 324.238 101.857C323.839 102.072 323.502 102.355 323.226 102.708C322.949 103.061 322.741 103.461 322.599 103.91C322.457 104.358 322.386 104.82 322.386 105.296C322.386 106.078 322.591 106.691 323.001 107.136C323.411 107.581 324.011 107.803 324.801 107.803C325.514 107.803 326.093 107.627 326.538 107.274C326.983 106.921 327.305 106.408 327.504 105.733L326.779 105.733C326.641 106.17 326.404 106.525 326.066 106.797C325.729 107.069 325.319 107.205 324.836 107.205C324.544 107.205 324.289 107.157 324.071 107.061C323.852 106.965 323.672 106.835 323.53 106.67C323.388 106.505 323.283 106.308 323.214 106.078C323.145 105.848 323.111 105.599 323.111 105.33C323.111 105.162 323.122 105.008 323.145 104.87Z" fill="#000000" fill-rule="nonzero" opacity="1" stroke="#171717" stroke-linecap="butt" stroke-linejoin="round" stroke-width="0"/>
<path d="M333.344 101.707L332.079 107.642L332.792 107.642L333.448 104.594C333.524 104.218 333.64 103.879 333.793 103.576C333.946 103.273 334.126 103.017 334.333 102.806C334.54 102.595 334.767 102.432 335.012 102.317C335.257 102.202 335.51 102.144 335.771 102.144C335.932 102.144 336.087 102.164 336.237 102.202C336.386 102.24 336.519 102.302 336.634 102.386C336.749 102.47 336.841 102.58 336.91 102.714C336.979 102.848 337.013 103.015 337.013 103.214C337.013 103.314 337.006 103.415 336.99 103.519C336.975 103.622 336.956 103.72 336.933 103.812L336.105 107.642L336.829 107.642L337.646 103.835C337.707 103.528 337.738 103.295 337.738 103.133C337.738 102.85 337.694 102.606 337.606 102.403C337.517 102.2 337.393 102.035 337.232 101.909C337.071 101.782 336.881 101.688 336.662 101.627C336.444 101.565 336.204 101.535 335.944 101.535C335.499 101.535 335.091 101.656 334.719 101.897C334.347 102.139 334.05 102.436 333.827 102.788L333.804 102.788L334.011 101.707L333.344 101.707Z" fill="#000000" fill-rule="nonzero" opacity="1" stroke="#171717" stroke-linecap="butt" stroke-linejoin="round" stroke-width="0"/>
<path d="M342.865 101.707L342.727 102.317L343.797 102.317L342.98 106.25C342.949 106.381 342.928 106.5 342.917 106.607C342.905 106.714 342.9 106.799 342.9 106.86C342.9 107.036 342.93 107.18 342.992 107.291C343.053 107.402 343.135 107.489 343.239 107.55C343.342 107.611 343.459 107.652 343.59 107.671C343.72 107.69 343.854 107.7 343.992 107.7C344.115 107.7 344.238 107.696 344.36 107.688C344.483 107.68 344.606 107.669 344.728 107.654L344.855 107.032C344.571 107.078 344.287 107.101 344.004 107.101C343.866 107.101 343.768 107.059 343.71 106.975C343.653 106.891 343.624 106.795 343.624 106.687C343.624 106.595 343.63 106.513 343.641 106.44C343.653 106.367 343.674 106.262 343.705 106.124L344.521 102.317L345.729 102.317L345.844 101.707L344.659 101.707L345.039 99.9131L344.314 99.9131L343.935 101.707L342.865 101.707Z" fill="#000000" fill-rule="nonzero" opacity="1" stroke="#171717" stroke-linecap="butt" stroke-linejoin="round" stroke-width="0"/>
</g>
</g>
<g id="Ebene-2" vectornator:layerName="Ebene 2">
<g opacity="1">
<path d="M78.5732 20.4657C78.5732 16.4498 81.83 13.1942 85.8474 13.1942C89.8648 13.1942 93.1216 16.4498 93.1216 20.4657C93.1216 24.4817 89.8648 27.7372 85.8474 27.7372C81.83 27.7372 78.5732 24.4817 78.5732 20.4657Z" fill="#b2b2b2" fill-rule="nonzero" opacity="1" stroke="#000000" stroke-linecap="butt" stroke-linejoin="round" stroke-width="1.5"/>
<path d="M80.5012 41.0829C54.2732 41.0829 15.873 66.0804 15.873 91.7888C15.873 109.035 25.62 117.337 35.2318 120.981C35.2703 120.996 35.3106 120.996 35.3491 121.01C57.0091 121.01 75.9219 101.121 79.0641 97.6653C71.1675 105.679 60.5329 110.414 49.2124 110.356C35.9064 110.289 27.6802 97.5983 27.7726 86.0881C27.9635 62.2978 62.0722 42.372 80.5012 41.0829Z" fill="#97003c" fill-rule="nonzero" opacity="1" stroke="#000000" stroke-linecap="butt" stroke-linejoin="round" stroke-width="1.5"/>
<path d="M77.0525 117.79C77.0525 117.79 80.3565 115.909 82.9322 113.754C85.5079 111.599 87.6021 109.41 87.6021 109.41C87.6021 109.41 90.2621 112.035 93.3795 114.635C96.4969 117.234 100.072 119.808 100.072 119.808C100.072 119.808 93.5553 119.685 87.8622 119.241C82.1691 118.796 77.0525 117.79 77.0525 117.79Z" fill="#97003c" fill-rule="nonzero" opacity="1" stroke="#000000" stroke-linecap="butt" stroke-linejoin="round" stroke-width="1.5"/>
<path d="M90.6854 41.176C90.6854 41.176 94.7406 41.5179 98.9327 40.8779C103.125 40.2379 107.454 38.6161 107.454 38.6161C107.454 38.6161 106.065 41.4883 103.225 43.7114C100.385 45.9345 96.094 47.5085 96.094 47.5085C96.094 47.5085 94.9025 45.6824 93.5503 44.0993C92.1982 42.5162 90.6854 41.176 90.6854 41.176Z" fill="#97003c" fill-rule="nonzero" opacity="1" stroke="#000000" stroke-linecap="butt" stroke-linejoin="round" stroke-width="1.5"/>
<path d="M82.6691 38.8853C83.4453 39.9344 92.0056 48.6202 92.4145 64.0767C92.4145 76.9793 87.6984 88.1671 80.2804 96.3317L80.2951 96.3757C80.2951 96.3757 79.8439 96.8352 79.7968 96.8886C79.6693 97.0244 79.5594 97.1796 79.4304 97.3136C79.3123 97.4363 79.1835 97.5441 79.0641 97.6653C75.9219 101.121 57.0091 121.01 35.3491 121.01C35.3505 121.011 35.3476 121.024 35.3491 121.025C40.0246 122.779 44.6643 123.435 48.1133 123.487C63.8601 123.724 99.6651 111.361 100.533 69.3378C100.482 48.7214 84.8886 40.2159 82.8596 38.8999C82.606 38.7354 82.5582 38.7354 82.6691 38.8853Z" fill="#b2b2b2" fill-rule="nonzero" opacity="1" stroke="#000000" stroke-linecap="butt" stroke-linejoin="round" stroke-width="1.5"/>
</g>
</g>
<g id="Ebene-4" vectornator:layerName="Ebene 4" visibility="hidden">
<g opacity="1">
<path d="M78.2599 20.4657C78.2599 16.4498 81.5167 13.1942 85.5341 13.1942C89.5515 13.1942 92.8083 16.4498 92.8083 20.4657C92.8083 24.4817 89.5515 27.7372 85.5341 27.7372C81.5167 27.7372 78.2599 24.4817 78.2599 20.4657Z" fill="#b2b2b2" fill-rule="nonzero" opacity="1" stroke="#000000" stroke-linecap="butt" stroke-linejoin="round" stroke-width="1.5"/>
<path d="M80.1879 41.0829C53.9599 41.0829 15.5597 66.0804 15.5597 91.7888C15.5597 109.035 25.3067 117.337 34.9186 120.981C34.957 120.996 34.9974 120.996 35.0358 121.01C56.6958 121.01 75.6087 101.121 78.7508 97.6653C70.8543 105.679 60.2197 110.414 48.8991 110.356C35.5931 110.289 27.3669 97.5983 27.4593 86.0881C27.6503 62.2978 61.7589 42.372 80.1879 41.0829Z" fill="#000000" fill-rule="nonzero" opacity="1" stroke="#000000" stroke-linecap="butt" stroke-linejoin="round" stroke-width="1.5"/>
<g opacity="1">
<path d="M76.7392 117.79C76.7392 117.79 80.0432 115.909 82.6189 113.754C85.1946 111.599 87.2888 109.41 87.2888 109.41C87.2888 109.41 89.9489 112.035 93.0662 114.635C96.1836 117.234 99.7583 119.808 99.7583 119.808C99.7583 119.808 93.242 119.685 87.5489 119.241C81.8558 118.796 76.7392 117.79 76.7392 117.79Z" fill="#000000" fill-rule="nonzero" stroke="none"/>
<path d="M87.0312 108.688C86.6826 108.815 86.3482 109.309 86.125 109.531C85.926 109.73 85.6025 110.031 85.4062 110.219C85.097 110.515 84.7824 110.834 84.4688 111.125C84.1044 111.464 83.7474 111.795 83.375 112.125C82.5567 112.85 81.7193 113.534 80.8438 114.188C79.7035 115.039 78.494 115.85 77.2812 116.594C76.9934 116.77 76.7297 116.924 76.4375 117.094C76.4217 117.103 76.437 117.089 76.375 117.125C76.2777 117.181 76.3737 117.321 76.3125 117.406C76.2099 117.513 75.9992 117.469 75.9688 117.625C75.9435 117.755 76.1215 117.788 76.1562 117.906C76.1688 118 76.0439 118.069 76.0938 118.156C76.1494 118.254 76.2894 118.158 76.375 118.219C76.4817 118.321 76.4377 118.532 76.5938 118.562C76.6199 118.568 76.5559 118.327 76.625 118.562C76.6326 118.588 76.6609 118.589 76.6875 118.594C77.0541 118.663 77.4136 118.717 77.7812 118.781C78.8286 118.964 79.8852 119.13 80.9375 119.281C85.6511 119.96 90.4006 120.288 95.1562 120.469C95.7266 120.49 96.3045 120.482 96.875 120.5C97.173 120.509 97.544 120.523 97.8438 120.531C98.4476 120.548 100.559 121.003 100.531 119.75C100.519 119.188 99.4956 118.634 99.1875 118.406C99.0118 118.277 98.8314 118.162 98.6562 118.031C97.1963 116.943 95.7563 115.837 94.3438 114.688C93.3308 113.864 92.321 113.022 91.3438 112.156C90.7272 111.61 90.1361 111.06 89.5312 110.5C89.2262 110.218 88.9262 109.911 88.625 109.625C88.2422 109.261 87.6849 108.449 87.0312 108.688ZM87.3125 110.469C87.4715 110.622 87.6212 110.786 87.7812 110.938C88.4073 111.531 89.0169 112.108 89.6562 112.688C91.6056 114.454 93.6411 116.137 95.7188 117.75C96.2464 118.16 96.7788 118.567 97.3125 118.969C95.9638 118.924 94.6292 118.877 93.2812 118.812C88.8736 118.603 84.4889 118.227 80.125 117.562C79.7144 117.5 79.316 117.412 78.9062 117.344C78.977 117.298 79.0545 117.264 79.125 117.219C80.499 116.327 81.8405 115.401 83.0938 114.344C83.5165 113.987 83.9605 113.616 84.375 113.25C84.7568 112.913 85.1263 112.565 85.5 112.219C86.074 111.687 86.6324 111.146 87.1875 110.594C87.2302 110.551 87.2699 110.511 87.3125 110.469Z" fill="#000000" stroke="none"/>
</g>
<path d="M90.3721 41.176C90.3721 41.176 94.4273 41.5179 98.6194 40.8779C102.812 40.2379 107.141 38.6161 107.141 38.6161C107.141 38.6161 105.752 41.4883 102.912 43.7114C100.072 45.9345 95.7807 47.5085 95.7807 47.5085C95.7807 47.5085 94.5892 45.6824 93.237 44.0993C91.8849 42.5162 90.3721 41.176 90.3721 41.176Z" fill="#000000" fill-rule="nonzero" opacity="1" stroke="#000000" stroke-linecap="butt" stroke-linejoin="round" stroke-width="1.5"/>
<path d="M82.3558 38.8853C83.132 39.9344 91.6923 48.6202 92.1012 64.0767C92.1012 76.9793 87.3851 88.1671 79.9671 96.3317L79.9818 96.3757C79.9818 96.3757 79.5306 96.8352 79.4835 96.8886C79.356 97.0244 79.2462 97.1796 79.1171 97.3136C78.999 97.4363 78.8702 97.5441 78.7508 97.6653C75.6087 101.121 56.6958 121.01 35.0358 121.01C35.0372 121.011 35.0344 121.024 35.0358 121.025C39.7113 122.779 44.351 123.435 47.8 123.487C63.5468 123.724 99.3518 111.361 100.22 69.3378C100.168 48.7214 84.5753 40.2159 82.5464 38.8999C82.2927 38.7354 82.245 38.7354 82.3558 38.8853Z" fill="#b2b2b2" fill-rule="nonzero" opacity="1" stroke="#000000" stroke-linecap="butt" stroke-linejoin="round" stroke-width="1.5"/>
</g>
</g>
</svg>
